<svg xmlns="http://www.w3.org/2000/svg" width="196" height="196.491" viewBox="0 0 196 196.491">
  <g id="Grupo_41034" data-name="Grupo 41034" transform="translate(-665 -977.998)">
    <g id="Grupo_41004" data-name="Grupo 41004" transform="translate(10 88.998)">
      <circle id="Elipse_739" data-name="Elipse 739" cx="98" cy="98" r="98" transform="translate(655 889)" fill="#005ea6"/>
      <g id="Grupo_39194" data-name="Grupo 39194" transform="translate(637.813 687.429)">
        <path id="Trazado_62971" data-name="Trazado 62971" d="M149.626,270.553s1.155,6.9.439,8.805c-.547,1.464-21.319,1.676-22.488.4s.78-3.484,1.8-3.994,11.631-5.163,11.631-5.163Z" transform="translate(13.598 113.369)" fill="#110239"/>
        <path id="Trazado_62972" data-name="Trazado 62972" d="M142.292,271.05h8.869s4.679,6.355,4.61,7.962-7.193,4.607-8.8,4.607-7.333-3.841-7.264-4.539S142.292,271.05,142.292,271.05Z" transform="translate(34.123 114.185)" fill="#110239"/>
        <path id="Trazado_62973" data-name="Trazado 62973" d="M131.425,231.907l25.176-.473s3.83,6.276,4.687,24.394c.587,12.4,1.094,15.837,2.329,32.234.835,11.132,4.785,48.595,4.785,48.595H155.02s-5.665-43.485-5.953-46.136c-.1-.938-3.415-33.049-3.415-33.049s.542,29.686.542,32.4.584,45.412.584,45.412H132.683s-1.583-35.531-1.718-44.852C130.748,275.342,129.458,236.782,131.425,231.907Z" transform="translate(18.746 49.078)" fill="#110239"/>
        <path id="Trazado_62974" data-name="Trazado 62974" d="M130.681,233.115A13.977,13.977,0,0,1,128.3,230.6a16.482,16.482,0,0,1-.878-2.556A10.882,10.882,0,0,0,127,226.9a11.091,11.091,0,0,1-.671-1.216c-.119-.354-.209-2.144-.767-2.347-.439-.159-.584.145-.7.486-.151.441.169,1.163.262,1.61.053.256.227.991-.008,1.192-.317.267-.727-.835-.835-1.06a3.745,3.745,0,0,1-.349-1.076,12.1,12.1,0,0,1-.132-1.282c-.016-.262-.018-.529-.032-.785-.021-.434-.037-.822-.021-1.253.011-.325-.037-.735-.444-.775-.457-.048-.465.73-.478,1.057a9.971,9.971,0,0,1-.1,1.018c-.034.227.082.722-.151.862a5.135,5.135,0,0,1-.267-1.512c-.032-.307-.042-2.107-.566-2.1-.83.011-.65,1.306-.6,1.832a4.8,4.8,0,0,0,.2,1.042c.05.145.2.875.132.817-.523-.415-.418-1.486-.523-2.088-.066-.375-.312-1.5-.833-.88a1.255,1.255,0,0,0-.164.909,4.716,4.716,0,0,0,.3,1.472,3.691,3.691,0,0,1,.182.983c-.407-.28-.589-1.829-1.134-1.8-.354.018-.389.677-.346.912a16.5,16.5,0,0,0,2.17,4.753,47.518,47.518,0,0,0,3.014,4.6c.605.825,2.781,2.255,4.8,4.906C129.7,235.533,130.009,234.8,130.681,233.115Z" transform="translate(0 29.818)" fill="#f88667"/>
        <path id="Trazado_62975" data-name="Trazado 62975" d="M140.044,214.559c-3.119,4.333-7.478,30.683-8.287,30.249a60.09,60.09,0,0,1-7.412-6.178,36.558,36.558,0,0,1-2.458,5.554c3.947,5.208,9.511,12.419,11.018,13.788,5.07,4.61,8.166-17.465,13.093-24.042C143.954,227.1,141.572,216.079,140.044,214.559Z" transform="translate(4.837 21.345)" fill="#fff"/>
        <path id="Trazado_62976" data-name="Trazado 62976" d="M136.59,212.21a13.293,13.293,0,0,0,7.988-4.105,36.885,36.885,0,0,0,1.316,12.771s-.315,20.592-8.684,18.118-2.987-15.877-2.987-15.877C136.161,220.032,136.568,215.382,136.59,212.21Z" transform="translate(22.313 10.738)" fill="#e45940"/>
        <path id="Trazado_62977" data-name="Trazado 62977" d="M152,212.736s11.689,1.591,14.521,3.122c0,0-7.952,12.736-5.475,20.928,0,0,1.3,16.532,1.821,27.008.161,3.191,3.653,35.187,3.653,35.187s-17.941,6.9-37.384.893c0,0,2.58-32.38,2.62-37.484.077-9.551.188-23.8.18-26.921,0,0-1.435-11.61-3.177-17.915a70.334,70.334,0,0,1,12.522-3.764s-.516.65,2.168,4.074C145.057,219.916,151.518,216.918,152,212.736Z" transform="translate(16.126 18.349)" fill="#fff"/>
        <path id="Trazado_62978" data-name="Trazado 62978" d="M141.874,222.731c.441-.875,3.693-5.628,5.311-9.72-1.142-.172-1.89-.275-1.89-.275-.478,4.182-6.939,7.18-8.552,5.128-2.683-3.423-2.168-4.074-2.168-4.074-.584.108-1.166.238-1.742.367.04.246.087.486.122.732.349,2.458.777,5.387,1.123,7.841l3.764-2.884Z" transform="translate(22.828 18.349)" fill="#dee8f3"/>
        <path id="Trazado_62979" data-name="Trazado 62979" d="M134.284,298.718c.574.024,1.129.024,1.689.032l.288-83.792a3.041,3.041,0,0,1-.592-.058Z" transform="translate(25.213 21.904)" fill="#d0d1de"/>
        <path id="Trazado_62980" data-name="Trazado 62980" d="M142.543,232.771c-1.687-5.578,1.459-13.254,3.64-17.592a46.541,46.541,0,0,0-4.251,7.074c-3.722,8.036-1,13.812-.375,21.885.862,11.145,1.012,22.438,1.462,33.614.2,4.867.679,12.258-.288,18.758a45.982,45.982,0,0,0,5.287-1.544s-3.492-32-3.653-35.187C143.841,249.3,142.543,232.771,142.543,232.771Z" transform="translate(34.626 22.364)" fill="#d0d1de"/>
        <path id="Trazado_62981" data-name="Trazado 62981" d="M132.541,244.839c.328-8.332,1.5-15.972-.843-23.3,0,3.933-.106,17.283-.18,26.387-.042,5.107-2.62,37.487-2.62,37.487.685.211,1.361.378,2.043.555C133.482,272.646,132.012,258.247,132.541,244.839Z" transform="translate(16.361 32.813)" fill="#d0d1de"/>
        <path id="Trazado_62982" data-name="Trazado 62982" d="M134.065,219.688l-12.136,3.243a1.762,1.762,0,0,0-.9,2.673l12.649,25.525a2.777,2.777,0,0,0,2.871,1.536l11.763-2.6a1.633,1.633,0,0,0,1.039-2.445l-12.221-26.268A2.839,2.839,0,0,0,134.065,219.688Z" transform="translate(2.991 29.666)" fill="#56b2e5"/>
        <path id="Trazado_62983" data-name="Trazado 62983" d="M130.323,233.045c.679.259,1.721,1.028,2.437.732.1-.04-.735-.328-.912-.365a5.439,5.439,0,0,1-1.179-.431c-.571-.27-2-.88-1.544-1.763.286-.558,2.139.542,2.472.7a6.009,6.009,0,0,0,1.7.65c-.011-.336-.584-.518-.8-.693a11.761,11.761,0,0,0-.991-.724c-.328-.219-1.121-.706-.819-1.158.272-.407.719-.206,1.044.008.434.28.841.5,1.3.748.27.145.547.307.822.449a14.364,14.364,0,0,0,1.39.65,4.279,4.279,0,0,0,1.3.293c.291.024,1.65.272,1.552-.233-.071-.37-.925-.64-1.219-.74-.51-.177-1.427-.283-1.8-.714-.285-.336-.515-.677-.106-1.044.518-.463,2.406.542,2.839.637a12.749,12.749,0,0,0,1.62.04,11.974,11.974,0,0,1,1.417.256,18.781,18.781,0,0,0,3.114.648,4.47,4.47,0,0,0,.986-.214c-.132,1.8,1.835,1.94,2.453,3.614-1.073.182-4.75,2.094-5.155,2.141a36.709,36.709,0,0,1-5.308.233,18.5,18.5,0,0,1-6.091-.634c-.264-.1-.923-.542-.743-.925.28-.592,1.969.169,2.485-.09a4.44,4.44,0,0,0-1.11-.412,5.451,5.451,0,0,1-1.679-.587c-.338-.182-.7-.349-.843-.732C128.61,232.45,129.9,232.884,130.323,233.045Z" transform="translate(16.361 45.553)" fill="#f88667"/>
        <path id="Trazado_62984" data-name="Trazado 62984" d="M135.652,262.031l-1.242-6.741c.016-.64,19.239-7.93,19.649-9.366.917-3.209-2.31-11.079-2.31-11.079s-1.919-5.964-1.689-10.669c.4-8.306,7.164-10.259,7.164-10.259,5.305,3.185,8.61,25.819,9.358,32.308.352,3.056.309,5.564-1.042,6.688C160.43,257.175,137.241,262.031,135.652,262.031Z" transform="translate(25.42 20.29)" fill="#fff"/>
        <path id="Trazado_62985" data-name="Trazado 62985" d="M143.978,203.508s-11.708.642-12.752,2.173-.312,6.143.545,9.995.769,11.584,5.562,12.012,12.519-5.572,13.976-13.86C153.161,203.278,144.779,203.461,143.978,203.508Z" transform="translate(19.342 3.169)" fill="#f88667"/>
        <path id="Trazado_62986" data-name="Trazado 62986" d="M139.284,203.1s-5.329,1.3-4.592,9.583c.333,3.733,0,6.736,1.163,6.683a1.933,1.933,0,0,0,1.946-2.107c-.219-1.052-.605-4.555,1.731-4.044s2.474,4.8,0,6.558a3.484,3.484,0,0,0,2.369,3.291s4.917-4.734,4.412-11.258S142.676,202.21,139.284,203.1Z" transform="translate(25.769 2.269)" fill="#110239"/>
        <path id="Trazado_62987" data-name="Trazado 62987" d="M149.92,205.639a7.955,7.955,0,0,0-8.393-3.968c-6.067.846-10.109,5.432-11.977,10.814,0,0,2.226,2.527,8.467,1.607a23.16,23.16,0,0,0,9.033-3.693C149.9,208.076,149.92,205.639,149.92,205.639Z" transform="translate(17.433)" fill="#110239"/>
        <path id="Trazado_62988" data-name="Trazado 62988" d="M138.06,218.871l-3.238,2.6-2-7.32,2.147-1.416Z" transform="translate(22.816 18.349)" fill="#fff"/>
        <path id="Trazado_62989" data-name="Trazado 62989" d="M138.6,222.765l-3.869-3.578,7.1-6.892,2.078,1.416Z" transform="translate(25.942 17.624)" fill="#fff"/>
      </g>
      <g id="Grupo_39201" data-name="Grupo 39201" transform="translate(290.187 887.384)">
        <path id="Trazado_62990" data-name="Trazado 62990" d="M422.593,53.1s3.664,10.762,5.807,15.487c12,26.468-10.2,23.086-18.644,21.841S391.7,85.995,392.222,79.17c.359-4.652,3.174-5.163,4.321-6.713s-1.091-4.09-.115-7.906,7.354-4.59,8.617-5.641,3.8-3.968,2.557-9.491-1.781-8.479,1.794-12.076c3.591-3.616,9.191-2.033,9.191-2.033Z" transform="translate(0.599 0.534)" fill="#110239"/>
        <path id="Trazado_62991" data-name="Trazado 62991" d="M427.441,64.178c.117.108,3.391-1.345,3.863-2.072a10.643,10.643,0,0,0-1.356-2.917c-.265-.381-.534-.73-.78-1.076-.231.677-.465,1.351-.714,1.927-.183.421-1.706.553-2.1,1.109C426.028,62.165,426.927,63.7,427.441,64.178Z" transform="translate(28.897 19.751)" fill="#ff9d8a"/>
        <g id="Grupo_39195" data-name="Grupo 39195" transform="translate(422.913 69.881)">
          <path id="Trazado_62992" data-name="Trazado 62992" d="M441.2,63.676l2.943,3.573S430.9,85.293,425.752,85.567s-15.959-19.5-15.959-19.5l5.214-12.317s1.9,1.007,3.217,4.306c2.339,5.858,4.973,15.632,7.026,16.2C428.463,75.155,441.2,63.676,441.2,63.676Z" transform="translate(-407.71 -53.751)" fill="#fff"/>
          <path id="Trazado_62993" data-name="Trazado 62993" d="M435.789,75.052c-2.549,1.911-8.212,5.61-8.364,5.637-2.934.529-8.763-10.4-11.964-19.676-1.762-5.106-5.707-3.816-6.806-5.211l2.083,8.563s10.809,19.773,15.959,19.5c2.959-.157,8.906-6.413,13.17-11.667C439.364,72.62,436.324,74.651,435.789,75.052Z" transform="translate(-408.655 -52.048)" fill="#d0d1de"/>
        </g>
        <g id="Grupo_39197" data-name="Grupo 39197" transform="translate(394.122 124.403)">
          <g id="Grupo_39196" data-name="Grupo 39196" transform="translate(7.088 4.108)">
            <rect id="Rectángulo_7092" data-name="Rectángulo 7092" width="2.642" height="69.596" fill="#a9c9f6"/>
            <rect id="Rectángulo_7093" data-name="Rectángulo 7093" width="2.642" height="69.596" transform="translate(48.912)" fill="#a9c9f6"/>
          </g>
          <rect id="Rectángulo_7094" data-name="Rectángulo 7094" width="65.73" height="6.805" fill="#110239"/>
        </g>
        <path id="Trazado_62994" data-name="Trazado 62994" d="M415.443,106.795s-6.7,5.842-6.669,6.689,11.477,20.291,13.468,20.352,2.458-3.311,2.134-4.588-4-19.825-4-19.825Z" transform="translate(14.357 60.167)" fill="#110239"/>
        <path id="Trazado_62995" data-name="Trazado 62995" d="M410.03,108.77s-6.525,6.041-6.464,6.887,12.083,19.936,14.076,19.936,2.355-3.382,1.993-4.652-4.59-19.695-4.59-19.695Z" transform="translate(10.033 61.806)" fill="#110239"/>
        <path id="Trazado_62996" data-name="Trazado 62996" d="M417.945,76.852s8.478,4.037,18.229,7.839c6.188,2.414,14.834,5.575,14.552,12.215-.207,4.843-19.695,51.5-19.695,51.5l-8.862-4.429S438.386,104.7,438.1,102.036s-2.167-.307-18.2-1.761-20.9-4.5-20.787-12.116,4.3-18.243,10.791-20.947S417.945,76.852,417.945,76.852Z" transform="translate(6.339 26.984)" fill="#56b2e5"/>
        <path id="Trazado_62997" data-name="Trazado 62997" d="M417.945,76.852s3.232,4.118,12.983,7.919c6.188,2.412,13.873,6.83,13.867,11.08-.007,4.846-18.152,50.363-18.152,50.363l-4.475-2.236S438.386,104.7,438.1,102.036s-2.167-.307-18.2-1.761-20.9-4.5-20.787-12.116,4.3-18.243,10.791-20.947S417.945,76.852,417.945,76.852Z" transform="translate(6.339 26.984)" fill="#4556ba"/>
        <path id="Trazado_62998" data-name="Trazado 62998" d="M417.161,69.714s2.579,10.749,8.7,13.327,20.185,5.459,20.18,12.242c-.005,4.846-20.985,52.843-20.985,52.843L414.3,143.092s14.2-38.837,13.842-41.494,1.051-1.353-15.018-2.319-18.236-4.036-18.357-11.647,9.746-17.918,9.746-17.918A16.457,16.457,0,0,1,417.161,69.714Z" transform="translate(2.729 28.313)" fill="#56b2e5"/>
        <path id="Trazado_62999" data-name="Trazado 62999" d="M414.6,51.521s-2.538,10.39,2.174,15.707c0,0,6.283,8.457-3.624,9.909s-8.62-11.559-8.62-11.559,1.693-14.338-.886-20.54C403.642,45.037,410.086,48.58,414.6,51.521Z" transform="translate(10.096 8.896)" fill="#e17c5e"/>
        <path id="Trazado_63000" data-name="Trazado 63000" d="M407.982,35.8s13.584.69,13.672,4.05-1.144,5.564-.69,8.5c.975,6.32-2.7,13.269-4.308,13.556-2.489.445-10.913-3.274-12.235-8.386S402.755,33.76,407.982,35.8Z" transform="translate(10.051 1.066)" fill="#ff9d8a"/>
        <path id="Trazado_63001" data-name="Trazado 63001" d="M420.578,47.3s-9.462,2.154-12.553-5.1c-2.441-5.734-1.605-6.429-1.605-6.429s5.221-4.065,11.367,1.451C421.9,40.911,420.578,47.3,420.578,47.3Z" transform="translate(12.288 0)" fill="#110239"/>
        <path id="Trazado_63002" data-name="Trazado 63002" d="M411.105,35.028s5.031,4.42,2.244,8.617c-2.515,3.783-.853,5.815-1.38,8.355a2.807,2.807,0,0,1-1.466-1.735c-.258-1.177-.652-4.167-2.231-3.735s-3.055,2.385-.009,4.885c0,0,1.655,3.4-.487,6.087,0,0-8.108-6.962-5.76-14.8S411.105,35.028,411.105,35.028Z" transform="translate(8.393 0.586)" fill="#110239"/>
        <path id="Trazado_63003" data-name="Trazado 63003" d="M455.086,109.7c-2.021-8.283-9.114-8.849-15.3-11.263C434.059,96.206,428.79,93.9,425.4,92.37c.516-3.712,2.52-17.907,3.36-20.284.966-2.74,2.222-4.37.966-8.366-1.772-5.639-2.246-7.077-2.246-7.077a27.585,27.585,0,0,0-4.98-3.8s-.02,3.148-1.792,4.034-7.414-6.605-7.414-6.605-8.553,3.594-10.487,5.167.878,16.651.878,16.651-4.918,14.949-5.238,20.551c-2.008,3.19-3.732,6.865-3.68,10.07.121,7.612,2.282,10.774,18.357,11.647,6.32.342,8.053.388,9.554,2.129.787.913,1.054,3.106,1.579,4.142,0,0,17.53,1.281,30.515-1.742A22.4,22.4,0,0,0,455.086,109.7Z" transform="translate(2.729 13.238)" fill="#fff"/>
        <path id="Trazado_63004" data-name="Trazado 63004" d="M429.244,117.072c-2.368-7.544-8.975-7.094-15.132-8.789-3.648-1-10.4-2.661-11.138-7.4-1.085-7.011.644-15.674,3.022-22.279,1.695-4.711,4.094-9.832,4.1-14.934.011-6.638-2.44-9.047-7.253-10.593l-.035.024c-1.935,1.572.878,16.651.878,16.651S398.769,84.7,398.449,90.3c-2.008,3.19-3.732,6.865-3.68,10.07.121,7.612,2.282,10.774,18.357,11.647,6.32.342,8.053.388,9.554,2.129.787.913,1.054,3.106,1.579,4.142,0,0,2.13.156,5.452.231C429.56,118.07,429.409,117.6,429.244,117.072Z" transform="translate(2.729 15.571)" fill="#d0d1de"/>
        <path id="Trazado_63005" data-name="Trazado 63005" d="M405.322,54.263c1.041,1.825,2.057,3.666,3.109,5.483a19.016,19.016,0,0,0,1.087,1.856,12.946,12.946,0,0,0,2.215-1.638c.54-.463.924-1.012,1.431-1.526.216.119.318.344.487.514a8.716,8.716,0,0,0,.752.6,6.46,6.46,0,0,0,1.5,1.058,37.271,37.271,0,0,0,.254-6.832c-.152-.686-1.356.141-1.3-.5-.077.893-.4,2.91-1.766,3.593-1.773.886-7.414-6.605-7.414-6.605s-.7.3-1.741.75A20.747,20.747,0,0,0,405.322,54.263Z" transform="translate(10.344 13.238)" fill="#8397a9" opacity="0.32" style="mix-blend-mode: multiply;isolation: isolate"/>
        <path id="Trazado_63006" data-name="Trazado 63006" d="M432.886,117.345c.525-3.012,1.05-10.176-.818-12.074-3.569-3.624-12.246-8.441-18.668-11.743-4.48-2.3-6.076-4.015-5.945-4.921,2.1-14.471,2.95-33.022,2.952-34.481l-.306,1.021s-.555,6.06-1.085,13.289c-.681,9.285-2.13,17.868-2.13,20.529,0,1.634.738,2.121,3.091,3.4,2.544,1.384,6.916,3.613,12.575,7.076a70.571,70.571,0,0,1,8.975,6.213c1.554,1.287,1.484,7.118.763,11.735C432.488,117.378,432.688,117.36,432.886,117.345Z" transform="translate(12.789 16.442)" fill="#d0d1de"/>
        <path id="Trazado_63007" data-name="Trazado 63007" d="M409.179,42.338s-.156,2.006,1.552,2.471c.7.192.633,2.388,1.2,4.6,1.078,4.211.392,7.077-2.742,8.3-2.249.877-5.432,1.572-9.05,4.109s-1.292-8.044,3.274-10.727S409.179,42.338,409.179,42.338Z" transform="translate(5.716 6.655)" fill="#110239"/>
        <path id="Trazado_63008" data-name="Trazado 63008" d="M407.53,49.042l-3.586,3.326,6.575,8.726,2.572-3.2Z" transform="translate(10.347 12.22)" fill="#fff"/>
        <path id="Trazado_63009" data-name="Trazado 63009" d="M409.692,50.268l-.751,6.605,2.511,2.241.683-5.433Z" transform="translate(14.496 13.239)" fill="#fff"/>
        <g id="Grupo_39198" data-name="Grupo 39198" transform="translate(438.539 84.678)">
          <path id="Trazado_63010" data-name="Trazado 63010" d="M427.678,66.778V62.431h-.763v4.427s5.533,7.919,5.533,10.355a2.117,2.117,0,0,1-1.4,2.306,3.346,3.346,0,0,1-1.155.19h-9a3.336,3.336,0,0,1-1.153-.19,2.117,2.117,0,0,1-1.4-2.306c0-2.436,5.533-10.355,5.533-10.355V62.431h-.763v4.347s-5.913,8.5-5.913,11.327a2.458,2.458,0,0,0,1.631,2.679,3.887,3.887,0,0,0,1.341.221h10.454a3.887,3.887,0,0,0,1.341-.221,2.46,2.46,0,0,0,1.631-2.679C433.591,75.273,427.678,66.778,427.678,66.778Z" transform="translate(-417.193 -61.342)" fill="#fff"/>
          <rect id="Rectángulo_7095" data-name="Rectángulo 7095" width="0.764" height="1.321" transform="translate(9.721 1.09)" fill="#dfeaeb"/>
          <rect id="Rectángulo_7096" data-name="Rectángulo 7096" width="0.764" height="1.321" transform="translate(5.913 1.09)" fill="#dfeaeb"/>
          <path id="Trazado_63011" data-name="Trazado 63011" d="M426.4,66.858V62.431h-3.045v4.427s-5.533,7.919-5.533,10.355a2.117,2.117,0,0,0,1.4,2.306,3.336,3.336,0,0,0,1.153.19h9a3.346,3.346,0,0,0,1.155-.19,2.117,2.117,0,0,0,1.4-2.306C431.929,74.777,426.4,66.858,426.4,66.858Z" transform="translate(-416.674 -61.342)" fill="#fff" opacity="0.32" style="mix-blend-mode: screen;isolation: isolate"/>
          <path id="Trazado_63012" data-name="Trazado 63012" d="M429.542,67.826a10.656,10.656,0,0,1-1.916.946,5.236,5.236,0,0,1-4.511-.56,5.479,5.479,0,0,0-3.045-.54c-1.191,2.042-2.251,4.158-2.251,5.223a2.117,2.117,0,0,0,1.4,2.306,3.336,3.336,0,0,0,1.153.19h9a3.346,3.346,0,0,0,1.155-.19,2.117,2.117,0,0,0,1.4-2.306c0-1.058-1.043-3.15-2.224-5.178C429.65,67.755,429.6,67.792,429.542,67.826Z" transform="translate(-416.674 -57.024)" fill="#f34f95"/>
          <rect id="Rectángulo_7097" data-name="Rectángulo 7097" width="5.944" height="1.689" rx="0.457" transform="translate(5.227)" fill="#fff"/>
          <path id="Trazado_63013" data-name="Trazado 63013" d="M420.429,70.258a.858.858,0,1,1-.858-.858A.858.858,0,0,1,420.429,70.258Z" transform="translate(-415.932 -55.556)" fill="#fc889f"/>
          <path id="Trazado_63014" data-name="Trazado 63014" d="M420.727,68.844a.449.449,0,1,1-.448-.448A.448.448,0,0,1,420.727,68.844Z" transform="translate(-415.005 -56.39)" fill="#fc889f"/>
          <path id="Trazado_63015" data-name="Trazado 63015" d="M421.4,71.241a.623.623,0,1,1-.624-.624A.622.622,0,0,1,421.4,71.241Z" transform="translate(-414.736 -54.546)" fill="#fc889f"/>
          <path id="Trazado_63016" data-name="Trazado 63016" d="M422.37,69.924a.769.769,0,1,1-.769-.769A.769.769,0,0,1,422.37,69.924Z" transform="translate(-414.171 -55.76)" fill="#fc889f"/>
          <path id="Trazado_63017" data-name="Trazado 63017" d="M424.813,69.991a1.1,1.1,0,1,1-1.1-1.1A1.1,1.1,0,0,1,424.813,69.991Z" transform="translate(-412.697 -55.982)" fill="#fc889f"/>
          <path id="Trazado_63018" data-name="Trazado 63018" d="M423.106,71.508a.5.5,0,1,1-.5-.5A.5.5,0,0,1,423.106,71.508Z" transform="translate(-413.115 -54.221)" fill="#fc889f"/>
          <path id="Trazado_63019" data-name="Trazado 63019" d="M424.993,70.905a.567.567,0,1,1-.567-.567A.568.568,0,0,1,424.993,70.905Z" transform="translate(-411.66 -54.778)" fill="#fc889f"/>
          <path id="Trazado_63020" data-name="Trazado 63020" d="M425.272,69.449a.439.439,0,1,1-.439-.439A.441.441,0,0,1,425.272,69.449Z" transform="translate(-411.215 -55.88)" fill="#fc889f"/>
          <path id="Trazado_63021" data-name="Trazado 63021" d="M419.765,71.188a.459.459,0,1,1-.459-.459A.459.459,0,0,1,419.765,71.188Z" transform="translate(-415.821 -54.453)" fill="#fc889f"/>
        </g>
        <path id="Trazado_63022" data-name="Trazado 63022" d="M415.286,68s2.242-.289,2.7-.41,5.584-5.057,6.351-4.764,7.971,2.95,8,3.829-1.8.824-5.752-1.063c0,0,5.1,1.924,4.467,2.879s-5.286-1.479-5.286-1.479,4.634,1.878,3.878,2.767-5.071-1.669-5.071-1.669,3.353,1.887,3.1,2.414-2.143.231-4.44-1.012c0,0-.386-.1-1.235.684s-6.457,2.127-6.457,2.127Z" transform="translate(19.763 23.654)" fill="#ff9d8a"/>
        <path id="Trazado_63023" data-name="Trazado 63023" d="M435.64,74.328l1.53,7.312S402,89.669,397.009,89.025s-7.249-7.249-4.028-13.049,9.722-22.887,13.911-23.209,6.876,5.346,3.413,11.549-6.933,14.237-5.564,15.286S435.64,74.328,435.64,74.328Z" transform="translate(0 15.302)" fill="#fff"/>
        <g id="Grupo_39200" data-name="Grupo 39200" transform="translate(452.403 64.938)">
          <g id="Grupo_39199" data-name="Grupo 39199" transform="translate(0.532 0.521)">
            <path id="Trazado_63024" data-name="Trazado 63024" d="M428.461,51.727l8.681,14.627a1.358,1.358,0,0,1-.635,2.024l-.027.016a1.358,1.358,0,0,1-2.081-.414L425.72,53.356l-.661.392,9.175,15.46a2.338,2.338,0,0,0,3.2.816l.04-.024a2.339,2.339,0,0,0,.818-3.2l-9.175-15.46Z" transform="translate(-425.059 -51.335)" fill="#fff"/>
            <rect id="Rectángulo_7098" data-name="Rectángulo 7098" width="0.768" height="1.594" transform="matrix(0.86, -0.51, 0.51, 0.86, 3.403, 0.392)" fill="#dfeaeb"/>
            <rect id="Rectángulo_7099" data-name="Rectángulo 7099" width="0.768" height="1.594" transform="matrix(0.86, -0.51, 0.51, 0.86, 0, 2.412)" fill="#dfeaeb"/>
            <path id="Trazado_63025" data-name="Trazado 63025" d="M436.207,68.2l-.027.016A1.358,1.358,0,0,1,434.1,67.8L425.42,53.178l2.742-1.629,8.681,14.627A1.358,1.358,0,0,1,436.207,68.2Z" transform="translate(-424.759 -51.157)" fill="#fff" opacity="0.32" style="mix-blend-mode: screen;isolation: isolate"/>
            <path id="Trazado_63026" data-name="Trazado 63026" d="M435.008,62.957l-.035-.06-.024-.04-3.17-5.342c-.068-.1-.126-.214-.2-.313a.318.318,0,0,1-.024-.06l-1.166-1.964a.661.661,0,0,0-.688-.038c-.247.148-.381.437-.666.584a3.221,3.221,0,0,1-.763.2c-.2.048-.739.176-.849.364a.217.217,0,0,0-.016.112l5.038,8.49a1.37,1.37,0,0,0,2.108.4,1.445,1.445,0,0,0,.866-1.391,1.624,1.624,0,0,0-.231-.633Z" transform="translate(-423.108 -48.244)" fill="#56b2e5"/>
          </g>
          <path id="Trazado_63027" data-name="Trazado 63027" d="M429.676,52.175l-4,2.372a.6.6,0,0,1-.82-.209l-.007-.011a.6.6,0,0,1,.21-.822l4-2.372a.6.6,0,0,1,.822.21l.005.009A.6.6,0,0,1,429.676,52.175Z" transform="translate(-424.768 -51.05)" fill="#fff"/>
          <path id="Trazado_63028" data-name="Trazado 63028" d="M429.332,56.607a.413.413,0,1,1-.566-.145A.411.411,0,0,1,429.332,56.607Z" transform="translate(-421.618 -46.605)" fill="#6fc6ec"/>
          <path id="Trazado_63029" data-name="Trazado 63029" d="M430.318,58.107a.665.665,0,1,1-.911-.232A.667.667,0,0,1,430.318,58.107Z" transform="translate(-421.188 -45.461)" fill="#6fc6ec"/>
          <path id="Trazado_63030" data-name="Trazado 63030" d="M430.809,58.735a.347.347,0,1,1-.474-.121A.347.347,0,0,1,430.809,58.735Z" transform="translate(-420.288 -44.811)" fill="#6fc6ec"/>
          <path id="Trazado_63031" data-name="Trazado 63031" d="M431.828,59.629a.635.635,0,1,1-.871-.221A.635.635,0,0,1,431.828,59.629Z" transform="translate(-419.888 -44.186)" fill="#6fc6ec"/>
          <path id="Trazado_63032" data-name="Trazado 63032" d="M430.317,57.111a.428.428,0,1,1-.586-.148A.429.429,0,0,1,430.317,57.111Z" transform="translate(-420.823 -46.192)" fill="#6fc6ec"/>
          <path id="Trazado_63033" data-name="Trazado 63033" d="M430.521,59.573a.349.349,0,1,1-.478-.123A.351.351,0,0,1,430.521,59.573Z" transform="translate(-420.532 -44.117)" fill="#6fc6ec"/>
          <path id="Trazado_63034" data-name="Trazado 63034" d="M428.859,56.074a.528.528,0,1,1-.723-.185A.526.526,0,0,1,428.859,56.074Z" transform="translate(-422.187 -47.094)" fill="#6fc6ec"/>
          <path id="Trazado_63035" data-name="Trazado 63035" d="M429.225,55.542a.349.349,0,1,1-.478-.123A.347.347,0,0,1,429.225,55.542Z" transform="translate(-421.608 -47.464)" fill="#6fc6ec"/>
        </g>
        <path id="Trazado_63036" data-name="Trazado 63036" d="M430.876,55.283c-.659.339-2.573,1.45-2.271,2.518.253.888,2.727-.606,2.727-.606-.913.567-2.5.888-2.233,1.642.3.84,2.383.035,2.85-.209-.447.044-2.784,1.007-2.033,1.816.512.555,2.233-.174,2.754-.43-.659.093-1.6.518-1.574,1.417.2.522,1.2.353,1.764.22.851-.2,1.6-.458,1.821-1.442a9.788,9.788,0,0,0-1.561-4.153C432.479,55.283,431.7,54.833,430.876,55.283Z" transform="translate(30.793 17.253)" fill="#ff9d8a"/>
        <path id="Trazado_63037" data-name="Trazado 63037" d="M427.537,57.2a2.38,2.38,0,0,0-.262,1.647c.1.739.648,2.489.639,2.7-.007.187-.1.393-.011.566.139.276.67.56.9.778.143.134,1.719,1.708,1.561,1.854l.889-.824L429.512,60.7a4.214,4.214,0,0,1-.69-1.757,4.96,4.96,0,0,1,.408-1.634c.2-.544.708-1.217.4-1.816C429.089,54.439,427.72,56.846,427.537,57.2Z" transform="translate(29.681 17.358)" fill="#ff9d8a"/>
      </g>
    </g>
  </g>
</svg>
