<svg xmlns="http://www.w3.org/2000/svg" xmlns:xlink="http://www.w3.org/1999/xlink" width="937.193" height="621.292" viewBox="0 0 937.193 621.292">
  <defs>
    <clipPath id="clip-path">
      <path id="Trazado_64297" data-name="Trazado 64297" d="M1283.48,0s-181.656-25.444-183.6,91.2c-2.16,129.6,183.6,88.56,207.36,164.16,29.354,93.4-118.8,77.76-114.48,174.96,4.684,105.383,513.78,213.84,731.01,28.08S1979-62.16,1979-62.16Z" fill="none"/>
    </clipPath>
  </defs>
  <g id="Grupo_41139" data-name="Grupo 41139" transform="translate(-1099.861 62.16)" clip-path="url(#clip-path)">
    <g id="Grupo_41089" data-name="Grupo 41089" opacity="0.4">
      <g id="Grupo_41047" data-name="Grupo 41047">
        <rect id="Rectángulo_7358" data-name="Rectángulo 7358" width="162.44" height="189.533" rx="12.896" transform="translate(1259.133 54.803)" fill="#0073aa"/>
        <g id="Rectángulo_7359" data-name="Rectángulo 7359" transform="translate(1256.033 51.186)" fill="none" stroke="#73c8f0" stroke-miterlimit="10" stroke-width="5.723">
          <rect width="168.639" height="196.766" rx="13.388" stroke="none"/>
          <rect x="2.861" y="2.861" width="162.916" height="191.044" rx="10.527" fill="none"/>
        </g>
        <g id="Grupo_41045" data-name="Grupo 41045">
          <path id="Trazado_64152" data-name="Trazado 64152" d="M1370.178,78.79V93.6c0,13.393,5.954,26.3,16.68,34.321a27.882,27.882,0,0,1,0,44.679c-10.726,8.022-16.68,20.928-16.68,34.321v14.808" fill="none" stroke="#d2f0ff" stroke-miterlimit="10" stroke-width="1.908"/>
          <line id="Línea_111" data-name="Línea 111" x2="30.008" transform="translate(1368.048 150.259)" fill="none" stroke="#d2f0ff" stroke-miterlimit="10" stroke-width="1.908"/>
          <line id="Línea_112" data-name="Línea 112" x2="23.616" transform="translate(1371.244 137.432)" fill="none" stroke="#d2f0ff" stroke-miterlimit="10" stroke-width="1.908"/>
          <line id="Línea_113" data-name="Línea 113" x2="23.616" transform="translate(1371.244 104.405)" fill="none" stroke="#d2f0ff" stroke-miterlimit="10" stroke-width="1.908"/>
          <line id="Línea_114" data-name="Línea 114" x2="23.616" transform="translate(1371.244 93.752)" fill="none" stroke="#d2f0ff" stroke-linecap="square" stroke-miterlimit="10" stroke-width="1.908"/>
          <line id="Línea_115" data-name="Línea 115" x2="23.616" transform="translate(1371.244 198.157)" fill="none" stroke="#d2f0ff" stroke-miterlimit="10" stroke-width="1.908"/>
          <line id="Línea_116" data-name="Línea 116" x2="23.616" transform="translate(1371.244 208.811)" fill="none" stroke="#d2f0ff" stroke-linecap="square" stroke-miterlimit="10" stroke-width="1.908"/>
          <line id="Línea_117" data-name="Línea 117" x2="25.747" transform="translate(1370.178 161.935)" fill="none" stroke="#d2f0ff" stroke-miterlimit="10" stroke-width="1.908"/>
          <path id="Trazado_64153" data-name="Trazado 64153" d="M1395.925,78.79V93.6c0,13.393-5.953,26.3-16.679,34.321a27.882,27.882,0,0,0,0,44.679c10.726,8.022,16.679,20.928,16.679,34.321v14.808" fill="none" stroke="#73c8f0" stroke-miterlimit="10" stroke-width="1.908"/>
        </g>
        <g id="Grupo_41046" data-name="Grupo 41046">
          <path id="Trazado_64154" data-name="Trazado 64154" d="M1333.478,106.858V88.153l-16.2-9.353-16.2,9.353v18.705l16.2,9.353Z" fill="none" stroke="#73c8f0" stroke-miterlimit="10" stroke-width="1.908"/>
          <path id="Trazado_64155" data-name="Trazado 64155" d="M1317.279,135.084v-18.7l-16.2-9.353-16.2,9.353v18.7l16.2,9.353Z" fill="none" stroke="#73c8f0" stroke-miterlimit="10" stroke-width="1.908"/>
          <line id="Línea_118" data-name="Línea 118" y2="18.177" transform="translate(1301.08 144.437)" fill="none" stroke="#73c8f0" stroke-miterlimit="10" stroke-width="1.908"/>
          <line id="Línea_119" data-name="Línea 119" x1="16.199" y1="9.353" transform="translate(1284.881 78.801)" fill="none" stroke="#73c8f0" stroke-miterlimit="10" stroke-width="1.908"/>
          <line id="Línea_120" data-name="Línea 120" x2="16.199" y2="9.353" transform="translate(1317.279 135.084)" fill="none" stroke="#73c8f0" stroke-miterlimit="10" stroke-width="1.908"/>
          <circle id="Elipse_793" data-name="Elipse 793" cx="3.333" cy="3.333" r="3.333" transform="translate(1313.946 112.878)" fill="#fff"/>
          <path id="Trazado_64156" data-name="Trazado 64156" d="M1301.08,110.36a3.333,3.333,0,1,1,3.333-3.333A3.333,3.333,0,0,1,1301.08,110.36Z" fill="#fff"/>
          <circle id="Elipse_794" data-name="Elipse 794" cx="3.333" cy="3.333" r="3.333" transform="translate(1297.747 84.82)" fill="#fff"/>
          <path id="Trazado_64157" data-name="Trazado 64157" d="M1284.881,82.134a3.333,3.333,0,1,1,3.333-3.333A3.333,3.333,0,0,1,1284.881,82.134Z" fill="#fff"/>
          <path id="Trazado_64158" data-name="Trazado 64158" d="M1317.279,138.417a3.333,3.333,0,1,1,3.333-3.333A3.333,3.333,0,0,1,1317.279,138.417Z" fill="#fff"/>
          <path id="Trazado_64159" data-name="Trazado 64159" d="M1333.478,147.77a3.333,3.333,0,1,1,3.333-3.333A3.333,3.333,0,0,1,1333.478,147.77Z" fill="#fff"/>
          <path id="Trazado_64160" data-name="Trazado 64160" d="M1301.08,147.77a3.333,3.333,0,1,1,3.333-3.333A3.333,3.333,0,0,1,1301.08,147.77Z" fill="#fff"/>
          <path id="Trazado_64161" data-name="Trazado 64161" d="M1301.08,165.947a3.333,3.333,0,1,1,3.333-3.333A3.333,3.333,0,0,1,1301.08,165.947Z" fill="#fff"/>
        </g>
      </g>
      <g id="Grupo_41052" data-name="Grupo 41052">
        <g id="Grupo_41048" data-name="Grupo 41048">
          <rect id="Rectángulo_7360" data-name="Rectángulo 7360" width="5.836" height="92.58" transform="translate(1703.659 89.948)" fill="#0b98cd"/>
          <rect id="Rectángulo_7361" data-name="Rectángulo 7361" width="2.132" height="92.58" transform="translate(1703.659 182.528) rotate(180)" fill="#0ca6e0"/>
          <line id="Línea_121" data-name="Línea 121" y2="82.901" transform="translate(1706.535 95.58)" fill="none" stroke="#a8cab7" stroke-linecap="round" stroke-miterlimit="10" stroke-width="2.861" stroke-dasharray="0 9.538"/>
        </g>
        <g id="Grupo_41049" data-name="Grupo 41049">
          <rect id="Rectángulo_7362" data-name="Rectángulo 7362" width="5.836" height="92.58" transform="translate(1822.98 89.948)" fill="#0b98cd"/>
          <rect id="Rectángulo_7363" data-name="Rectángulo 7363" width="2.132" height="92.58" transform="translate(1822.98 182.528) rotate(180)" fill="#0ca6e0"/>
          <line id="Línea_122" data-name="Línea 122" y2="82.901" transform="translate(1825.855 95.58)" fill="none" stroke="#a8cab7" stroke-linecap="round" stroke-miterlimit="10" stroke-width="2.861" stroke-dasharray="0 9.538"/>
        </g>
        <g id="Grupo_41050" data-name="Grupo 41050">
          <rect id="Rectángulo_7364" data-name="Rectángulo 7364" width="184.096" height="9.005" transform="translate(1673.657 157.228)" fill="#9cd9db"/>
          <rect id="Rectángulo_7365" data-name="Rectángulo 7365" width="39.82" height="9.005" transform="translate(1673.657 157.228)" fill="#fff"/>
          <rect id="Rectángulo_7366" data-name="Rectángulo 7366" width="177.417" height="5.685" transform="translate(1677.606 166.233)" fill="#0b98cd"/>
          <rect id="Rectángulo_7367" data-name="Rectángulo 7367" width="32.034" height="5.685" transform="translate(1677.606 166.233)" fill="#0ca6e0"/>
        </g>
        <g id="Grupo_41051" data-name="Grupo 41051">
          <rect id="Rectángulo_7368" data-name="Rectángulo 7368" width="184.096" height="9.005" transform="translate(1673.657 103.885)" fill="#9cd9db"/>
          <rect id="Rectángulo_7369" data-name="Rectángulo 7369" width="39.82" height="9.005" transform="translate(1673.657 103.885)" fill="#fff"/>
          <rect id="Rectángulo_7370" data-name="Rectángulo 7370" width="177.417" height="5.685" transform="translate(1677.606 112.89)" fill="#0b98cd"/>
          <rect id="Rectángulo_7371" data-name="Rectángulo 7371" width="32.034" height="5.685" transform="translate(1677.606 112.89)" fill="#0ca6e0"/>
        </g>
      </g>
      <g id="Grupo_41053" data-name="Grupo 41053">
        <rect id="Rectángulo_7372" data-name="Rectángulo 7372" width="63.262" height="90.953" transform="translate(1932.814 278.431) rotate(180)" fill="#fff"/>
        <rect id="Rectángulo_7373" data-name="Rectángulo 7373" width="40.452" height="20.035" transform="translate(1892.362 187.478)" fill="#9cd9db"/>
        <circle id="Elipse_795" data-name="Elipse 795" cx="2.787" cy="2.787" r="2.787" transform="translate(1909.268 191.92)" fill="#0b98cd"/>
        <rect id="Rectángulo_7374" data-name="Rectángulo 7374" width="40.452" height="20.034" transform="translate(1892.362 210.708)" fill="#9cd9db"/>
        <path id="Trazado_64162" data-name="Trazado 64162" d="M1914.843,217.938a2.788,2.788,0,1,1-2.788-2.787A2.788,2.788,0,0,1,1914.843,217.938Z" fill="#0b98cd"/>
        <rect id="Rectángulo_7375" data-name="Rectángulo 7375" width="40.452" height="20.035" transform="translate(1892.362 233.939)" fill="#9cd9db"/>
        <circle id="Elipse_796" data-name="Elipse 796" cx="2.787" cy="2.787" r="2.787" transform="translate(1909.268 238.381)" fill="#0b98cd"/>
        <rect id="Rectángulo_7376" data-name="Rectángulo 7376" width="40.452" height="20.034" transform="translate(1892.362 258.235)" fill="#9cd9db"/>
        <circle id="Elipse_797" data-name="Elipse 797" cx="2.787" cy="2.787" r="2.787" transform="translate(1909.268 262.677)" fill="#0b98cd"/>
        <rect id="Rectángulo_7377" data-name="Rectángulo 7377" width="63.262" height="95.932" transform="translate(1932.814 373.484) rotate(180)" fill="#fff"/>
        <rect id="Rectángulo_7378" data-name="Rectángulo 7378" width="40.452" height="20.034" transform="translate(1892.362 282.531)" fill="#9cd9db"/>
        <path id="Trazado_64163" data-name="Trazado 64163" d="M1914.843,289.76a2.788,2.788,0,1,1-2.788-2.787A2.788,2.788,0,0,1,1914.843,289.76Z" fill="#0b98cd"/>
        <rect id="Rectángulo_7379" data-name="Rectángulo 7379" width="40.452" height="20.035" transform="translate(1892.362 305.761)" fill="#9cd9db"/>
        <circle id="Elipse_798" data-name="Elipse 798" cx="2.787" cy="2.787" r="2.787" transform="translate(1909.268 310.203)" fill="#0b98cd"/>
        <rect id="Rectángulo_7380" data-name="Rectángulo 7380" width="40.452" height="20.034" transform="translate(1892.362 328.992)" fill="#9cd9db"/>
        <circle id="Elipse_799" data-name="Elipse 799" cx="2.787" cy="2.787" r="2.787" transform="translate(1909.268 333.434)" fill="#0b98cd"/>
        <rect id="Rectángulo_7381" data-name="Rectángulo 7381" width="40.452" height="20.034" transform="translate(1892.362 353.287)" fill="#9cd9db"/>
        <circle id="Elipse_800" data-name="Elipse 800" cx="2.787" cy="2.787" r="2.787" transform="translate(1909.268 357.73)" fill="#0b98cd"/>
      </g>
      <g id="Grupo_41071" data-name="Grupo 41071">
        <g id="Trazado_64164" data-name="Trazado 64164" fill="none" stroke-miterlimit="10">
          <path d="M1312.114,331.017a5.508,5.508,0,1,1-5.508-5.508A5.508,5.508,0,0,1,1312.114,331.017Z" stroke="none"/>
          <path d="M 1306.60595703125 325.5090026855469 C 1309.64794921875 325.5090026855469 1312.114013671875 327.9750061035156 1312.114013671875 331.0169982910156 C 1312.114013671875 334.0589904785156 1309.64794921875 336.5249938964844 1306.60595703125 336.5249938964844 C 1303.56396484375 336.5249938964844 1301.098022460938 334.0589904785156 1301.098022460938 331.0169982910156 C 1301.098022460938 327.9750061035156 1303.56396484375 325.5090026855469 1306.60595703125 325.5090026855469 Z" stroke="none" fill="#73c8f0"/>
        </g>
        <g id="Trazado_64165" data-name="Trazado 64165" fill="none" stroke-miterlimit="10">
          <path d="M1334.949,331.017a5.508,5.508,0,1,1-5.508-5.508A5.508,5.508,0,0,1,1334.949,331.017Z" stroke="none"/>
          <path d="M 1329.441040039063 325.5090026855469 C 1332.483032226563 325.5090026855469 1334.948974609375 327.9750061035156 1334.948974609375 331.0169982910156 C 1334.948974609375 334.0589904785156 1332.483032226563 336.5249938964844 1329.441040039063 336.5249938964844 C 1326.399047851563 336.5249938964844 1323.932983398438 334.0589904785156 1323.932983398438 331.0169982910156 C 1323.932983398438 327.9750061035156 1326.399047851563 325.5090026855469 1329.441040039063 325.5090026855469 Z" stroke="none" fill="#73c8f0"/>
        </g>
        <g id="Grupo_41054" data-name="Grupo 41054">
          <g id="Trazado_64166" data-name="Trazado 64166" fill="none" stroke-miterlimit="10">
            <path d="M1351.324,370.692h-14.336a7.972,7.972,0,0,1-7.964-7.963V335.278h.834v27.451a7.139,7.139,0,0,0,7.13,7.131h14.336Z" stroke="none"/>
            <path d="M 1351.323974609375 370.6919860839844 L 1336.988037109375 370.6919860839844 C 1332.597045898438 370.6919860839844 1329.024047851563 367.1210021972656 1329.024047851563 362.72900390625 L 1329.024047851563 335.2780151367188 L 1329.858032226563 335.2780151367188 L 1329.858032226563 362.72900390625 C 1329.858032226563 366.6610107421875 1333.057006835938 369.8599853515625 1336.988037109375 369.8599853515625 L 1351.323974609375 369.8599853515625 L 1351.323974609375 370.6919860839844 Z" stroke="none" fill="#73c8f0"/>
          </g>
        </g>
        <path id="Trazado_64167" data-name="Trazado 64167" d="M1306.08,201V194.58a9.122,9.122,0,0,0-9.122-9.122h-17.953a9.122,9.122,0,0,0-9.122,9.122V234" fill="none" stroke="#fff" stroke-miterlimit="10" stroke-width="0.954"/>
        <path id="Trazado_64168" data-name="Trazado 64168" d="M1337.551,235.991v-53.4a8.279,8.279,0,0,1,8.279-8.279h.211a8.279,8.279,0,0,1,8.279,8.279h0a8.28,8.28,0,0,1-8.279,8.279h-29.825A10.137,10.137,0,0,0,1306.08,201v3.2" fill="none" stroke="#fff" stroke-miterlimit="10" stroke-width="0.954"/>
        <g id="Grupo_41056" data-name="Grupo 41056">
          <g id="Grupo_41055" data-name="Grupo 41055">
            <rect id="Rectángulo_7382" data-name="Rectángulo 7382" width="6.199" height="25.354" transform="translate(1302.98 202.396)" fill="#fff"/>
            <line id="Línea_123" data-name="Línea 123" x2="6.199" transform="translate(1302.98 202.396)" fill="none" stroke="#afe6ff" stroke-linecap="round" stroke-miterlimit="10" stroke-width="2.062"/>
          </g>
          <path id="Trazado_64169" data-name="Trazado 64169" d="M1309.033,215.7l9.136,16.317a3.385,3.385,0,0,1-2.953,5.038h-18.272a3.385,3.385,0,0,1-2.953-5.038l9.136-16.317A3.384,3.384,0,0,1,1309.033,215.7Z" fill="#fff"/>
          <path id="Trazado_64170" data-name="Trazado 64170" d="M1312.391,226.619c-2.235.223-4.329-.124-6.612-.11a21.506,21.506,0,0,0-6.884,1.671l-1.219,2.178a2.352,2.352,0,0,0,2.053,3.5h12.7a2.352,2.352,0,0,0,2.053-3.5Z" fill="#e64b55"/>
        </g>
        <g id="Grupo_41057" data-name="Grupo 41057">
          <circle id="Elipse_801" data-name="Elipse 801" cx="10.33" cy="10.33" r="10.33" transform="translate(1324.068 256.573) rotate(-22.367)" fill="#fff"/>
          <rect id="Rectángulo_7383" data-name="Rectángulo 7383" width="6.199" height="25.354" transform="translate(1334.452 235.275)" fill="#fff"/>
          <line id="Línea_124" data-name="Línea 124" x2="6.199" transform="translate(1334.452 235.275)" fill="none" stroke="#afe6ff" stroke-linecap="round" stroke-miterlimit="10" stroke-width="2.062"/>
          <path id="Trazado_64171" data-name="Trazado 64171" d="M1342.275,258.444c-4.469-.051-10.253-1.2-12.413,3.81a7.69,7.69,0,1,0,14.378-3.854C1343.584,258.442,1342.926,258.451,1342.275,258.444Z" fill="#1c9585"/>
        </g>
        <g id="Grupo_41058" data-name="Grupo 41058">
          <path id="Trazado_64172" data-name="Trazado 64172" d="M1259.133,234h-6.2v30.778a3.1,3.1,0,0,0,3.1,3.1h0a3.1,3.1,0,0,0,3.1-3.1Z" fill="#d9f8ff"/>
          <line id="Línea_125" data-name="Línea 125" x2="6.199" transform="translate(1252.934 234.004)" fill="none" stroke="#afe6ff" stroke-linecap="round" stroke-miterlimit="10" stroke-width="2.062"/>
        </g>
        <g id="Grupo_41059" data-name="Grupo 41059">
          <path id="Trazado_64173" data-name="Trazado 64173" d="M1272.982,234h-6.2v30.778a3.1,3.1,0,0,0,3.1,3.1h0a3.1,3.1,0,0,0,3.1-3.1Z" fill="#d9f8ff"/>
          <line id="Línea_126" data-name="Línea 126" x2="6.199" transform="translate(1266.783 234.004)" fill="none" stroke="#afe6ff" stroke-linecap="round" stroke-miterlimit="10" stroke-width="2.062"/>
        </g>
        <g id="Grupo_41068" data-name="Grupo 41068">
          <g id="Grupo_41060" data-name="Grupo 41060">
            <rect id="Rectángulo_7384" data-name="Rectángulo 7384" width="6.392" height="100.706" transform="translate(1240.786 277.92)" fill="#9cd9db"/>
          </g>
          <g id="Grupo_41061" data-name="Grupo 41061">
            <rect id="Rectángulo_7385" data-name="Rectángulo 7385" width="6.392" height="100.706" transform="translate(1285.138 277.92)" fill="#fff"/>
          </g>
          <g id="Grupo_41062" data-name="Grupo 41062">
            <rect id="Rectángulo_7386" data-name="Rectángulo 7386" width="6.392" height="19.505" transform="translate(1285.138 277.92)" fill="#0e5998"/>
          </g>
          <g id="Grupo_41063" data-name="Grupo 41063">
            <rect id="Rectángulo_7387" data-name="Rectángulo 7387" width="6.392" height="19.505" transform="translate(1240.786 277.92)" fill="#0e5998"/>
          </g>
          <g id="Grupo_41064" data-name="Grupo 41064">
            <rect id="Rectángulo_7388" data-name="Rectángulo 7388" width="6.392" height="100.706" transform="translate(1388.871 277.92)" fill="#b3e3ef"/>
          </g>
          <g id="Grupo_41065" data-name="Grupo 41065">
            <rect id="Rectángulo_7389" data-name="Rectángulo 7389" width="6.392" height="100.706" transform="translate(1427.896 277.92)" fill="#b3e3ef"/>
          </g>
          <g id="Grupo_41066" data-name="Grupo 41066">
            <rect id="Rectángulo_7390" data-name="Rectángulo 7390" width="6.392" height="19.505" transform="translate(1427.896 277.92)" fill="#0e5998"/>
          </g>
          <g id="Grupo_41067" data-name="Grupo 41067">
            <rect id="Rectángulo_7391" data-name="Rectángulo 7391" width="6.392" height="19.505" transform="translate(1388.871 277.92)" fill="#0e5998"/>
          </g>
          <rect id="Rectángulo_7392" data-name="Rectángulo 7392" width="205.403" height="11.691" transform="translate(1234.24 272.075)" fill="#b3e3ef"/>
          <rect id="Rectángulo_7393" data-name="Rectángulo 7393" width="61.127" height="11.691" transform="translate(1234.24 272.075)" fill="#fff"/>
          <rect id="Rectángulo_7394" data-name="Rectángulo 7394" width="198.725" height="7.38" transform="translate(1238.189 283.766)" fill="#0e5998"/>
          <rect id="Rectángulo_7395" data-name="Rectángulo 7395" width="53.341" height="7.38" transform="translate(1238.189 283.766)" fill="#0ca6e0"/>
          <rect id="Rectángulo_7396" data-name="Rectángulo 7396" width="84.976" height="87.447" transform="translate(1436.419 378.626) rotate(180)" fill="#fff"/>
          <rect id="Rectángulo_7397" data-name="Rectángulo 7397" width="56.476" height="16.488" transform="translate(1379.943 291.22)" fill="#b3e3ef"/>
          <circle id="Elipse_802" data-name="Elipse 802" cx="2.787" cy="2.787" r="2.787" transform="translate(1406.481 292.115)" fill="#0b98cd"/>
          <rect id="Rectángulo_7398" data-name="Rectángulo 7398" width="56.432" height="20.035" transform="translate(1379.987 310.904)" fill="#b3e3ef"/>
          <circle id="Elipse_803" data-name="Elipse 803" cx="2.787" cy="2.787" r="2.787" transform="translate(1406.481 315.346)" fill="#0b98cd"/>
          <rect id="Rectángulo_7399" data-name="Rectángulo 7399" width="56.432" height="20.034" transform="translate(1379.987 334.134)" fill="#b3e3ef"/>
          <circle id="Elipse_804" data-name="Elipse 804" cx="2.787" cy="2.787" r="2.787" transform="translate(1406.481 338.576)" fill="#0b98cd"/>
          <rect id="Rectángulo_7400" data-name="Rectángulo 7400" width="56.432" height="20.035" transform="translate(1379.987 358.43)" fill="#b3e3ef"/>
          <circle id="Elipse_805" data-name="Elipse 805" cx="2.787" cy="2.787" r="2.787" transform="translate(1406.481 362.872)" fill="#0b98cd"/>
        </g>
        <line id="Línea_127" data-name="Línea 127" y2="76.142" transform="translate(1285.138 195.933)" fill="none" stroke="#00558c" stroke-miterlimit="10" stroke-width="2.861"/>
        <line id="Línea_128" data-name="Línea 128" x2="47.548" transform="translate(1243.982 240.538)" fill="none" stroke="#00558c" stroke-miterlimit="10" stroke-width="2.861"/>
        <line id="Línea_129" data-name="Línea 129" x2="39.691" transform="translate(1278.915 209.45)" fill="none" stroke="#00558c" stroke-miterlimit="10" stroke-width="2.861"/>
        <g id="Grupo_41070" data-name="Grupo 41070">
          <g id="Grupo_41069" data-name="Grupo 41069">
            <rect id="Rectángulo_7401" data-name="Rectángulo 7401" width="6.199" height="25.354" transform="translate(1390.772 229.354)" fill="#73c8f0"/>
            <line id="Línea_130" data-name="Línea 130" x2="6.199" transform="translate(1390.772 229.354)" fill="none" stroke="#afe6ff" stroke-linecap="round" stroke-miterlimit="10" stroke-width="2.062"/>
          </g>
          <path id="Trazado_64174" data-name="Trazado 64174" d="M1396.825,251.178l9.135,16.317a3.383,3.383,0,0,1-2.953,5.037h-18.271a3.384,3.384,0,0,1-2.954-5.037l9.136-16.317A3.385,3.385,0,0,1,1396.825,251.178Z" fill="#73c8f0"/>
        </g>
      </g>
      <g id="Grupo_41072" data-name="Grupo 41072">
        <path id="Trazado_64175" data-name="Trazado 64175" d="M1917.574,318.975a23.643,23.643,0,0,1-1.483-16.4,26.075,26.075,0,0,0-1.918-18.947,17.969,17.969,0,0,1-.07-15.866,31.348,31.348,0,0,0,1.227-3.059c3.749-10.993.707-21.978-5.087-23.954s-14.914,4.861-18.663,15.853a28.9,28.9,0,0,0-1.214,14.51,19.706,19.706,0,0,1-1.148,11.936,25.49,25.49,0,0,0-2.126,12.846,26.051,26.051,0,0,0,1.707,7.2,25.527,25.527,0,0,1,.126,19.052,28.717,28.717,0,0,0-1.988,8.15c-1.2,12.8,6.287,23.965,14.346,24.72s17.491-8.827,18.69-21.625A28.251,28.251,0,0,0,1917.574,318.975Z" fill="#0b98cd"/>
        <path id="Trazado_64176" data-name="Trazado 64176" d="M1928.935,322.5a26.12,26.12,0,0,1,.181-14.268,28.4,28.4,0,0,0,.985-4.2c1.572-10.063-2.39-19.038-8.849-20.047s-12.968,6.332-14.54,16.394a27.39,27.39,0,0,0-.189,7.187,28.885,28.885,0,0,1-2.014,15.008,36.787,36.787,0,0,0-2.719,9.326c-1.99,12.748,2.575,24.047,10.2,25.237s15.413-8.179,17.4-20.928A34.834,34.834,0,0,0,1928.935,322.5Z" fill="#0b98cd"/>
        <path id="Trazado_64177" data-name="Trazado 64177" d="M1907.948,253.275s-8.991,22.523-4.493,45.6,0,61.922-.947,84.454" fill="none" stroke="#fff" stroke-linecap="round" stroke-miterlimit="10" stroke-width="0.715"/>
        <path id="Trazado_64178" data-name="Trazado 64178" d="M1918.846,296.9s-4.029,17.306-2.961,32.974-7.929,33.82-5.088,52.678" fill="none" stroke="#fff" stroke-miterlimit="10" stroke-width="0.715"/>
        <path id="Trazado_64179" data-name="Trazado 64179" d="M1908.23,329.573a34.534,34.534,0,0,0-31.653-21.94c-10.2-.148-18.474,4.938-18.474,11.03s8.271,11.03,18.474,11.03h.042a4.583,4.583,0,0,1,4.56,3.672,36.808,36.808,0,0,0,1.557,5.547c4.319,11.792,13.528,19.26,20.568,16.681S1912.55,341.365,1908.23,329.573Z" fill="#0b98cd"/>
        <path id="Trazado_64180" data-name="Trazado 64180" d="M1864.751,321.058s17.382-9.406,25.617,3.614,6.239,16.786,14.457,30.172,2.773,23.564,2.773,23.564" fill="none" stroke="#fff" stroke-miterlimit="10" stroke-width="0.715"/>
        <path id="Rectángulo_7402" data-name="Rectángulo 7402" d="M0,0H34.506a0,0,0,0,1,0,0V22.336A15.446,15.446,0,0,1,19.06,37.782H15.446A15.446,15.446,0,0,1,0,22.336V0A0,0,0,0,1,0,0Z" transform="translate(1888.917 353.17)" fill="#9cd9db"/>
        <path id="Trazado_64181" data-name="Trazado 64181" d="M1915.582,353.17V373.7a17.247,17.247,0,0,1-13.333,16.788,17.237,17.237,0,0,0,3.921.465h0a17.253,17.253,0,0,0,17.253-17.253V353.17Z" fill="#73c8f0"/>
        <path id="Rectángulo_7403" data-name="Rectángulo 7403" d="M0,0H41.4a0,0,0,0,1,0,0V2.777a4.064,4.064,0,0,1-4.064,4.064H4.065A4.065,4.065,0,0,1,0,2.777V0A0,0,0,0,1,0,0Z" transform="translate(1885.335 385.01)" fill="#fff"/>
        <line id="Línea_131" data-name="Línea 131" x2="15.634" y2="11.867" transform="translate(1887.821 287.007)" fill="none" stroke="#fff" stroke-linecap="round" stroke-miterlimit="10" stroke-width="0.715"/>
        <line id="Línea_132" data-name="Línea 132" x1="11.727" y2="12.857" transform="translate(1902.691 281.073)" fill="none" stroke="#fff" stroke-linecap="round" stroke-miterlimit="10" stroke-width="0.715"/>
        <line id="Línea_133" data-name="Línea 133" x2="11.455" y2="8.375" transform="translate(1890.74 276.886)" fill="none" stroke="#fff" stroke-linecap="round" stroke-miterlimit="10" stroke-width="0.715"/>
        <line id="Línea_134" data-name="Línea 134" y1="8.619" x2="15.165" transform="translate(1915.281 332.484)" fill="none" stroke="#fff" stroke-linecap="round" stroke-miterlimit="10" stroke-width="0.715"/>
        <line id="Línea_135" data-name="Línea 135" x1="14.02" y2="10.845" transform="translate(1916.334 301.897)" fill="none" stroke="#fff" stroke-linecap="round" stroke-miterlimit="10" stroke-width="0.715"/>
        <line id="Línea_136" data-name="Línea 136" x2="9.725" y2="9.746" transform="translate(1907.223 297.883)" fill="none" stroke="#fff" stroke-miterlimit="10" stroke-width="0.715"/>
        <line id="Línea_137" data-name="Línea 137" x1="9.435" y2="16.937" transform="translate(1899.443 327.487)" fill="none" stroke="#fff" stroke-miterlimit="10" stroke-width="0.715"/>
        <line id="Línea_138" data-name="Línea 138" x2="5.759" y2="13.418" transform="translate(1878.512 305.761)" fill="none" stroke="#fff" stroke-linecap="round" stroke-miterlimit="10" stroke-width="0.715"/>
        <line id="Línea_139" data-name="Línea 139" y1="10.814" x2="10.813" transform="translate(1869.051 317.925)" fill="none" stroke="#fff" stroke-linecap="round" stroke-miterlimit="10" stroke-width="0.715"/>
        <line id="Línea_140" data-name="Línea 140" x2="16.248" y2="2.929" transform="translate(1881.392 336.794)" fill="none" stroke="#fff" stroke-linecap="round" stroke-miterlimit="10" stroke-width="0.715"/>
      </g>
      <g id="Grupo_41088" data-name="Grupo 41088">
        <g id="Grupo_41077" data-name="Grupo 41077">
          <g id="Grupo_41073" data-name="Grupo 41073">
            <rect id="Rectángulo_7404" data-name="Rectángulo 7404" width="5.836" height="92.58" transform="translate(1495.914 89.948)" fill="#0b98cd"/>
            <rect id="Rectángulo_7405" data-name="Rectángulo 7405" width="2.132" height="92.58" transform="translate(1495.914 182.528) rotate(180)" fill="#0ca6e0"/>
            <line id="Línea_141" data-name="Línea 141" y2="82.901" transform="translate(1498.789 95.58)" fill="none" stroke="#a8cab7" stroke-linecap="round" stroke-miterlimit="10" stroke-width="2.861" stroke-dasharray="0 9.538"/>
          </g>
          <g id="Grupo_41074" data-name="Grupo 41074">
            <rect id="Rectángulo_7406" data-name="Rectángulo 7406" width="5.836" height="92.58" transform="translate(1615.234 89.948)" fill="#0b98cd"/>
            <rect id="Rectángulo_7407" data-name="Rectángulo 7407" width="2.132" height="92.58" transform="translate(1615.234 182.528) rotate(180)" fill="#0ca6e0"/>
            <line id="Línea_142" data-name="Línea 142" y2="82.901" transform="translate(1618.11 95.58)" fill="none" stroke="#a8cab7" stroke-linecap="round" stroke-miterlimit="10" stroke-width="2.861" stroke-dasharray="0 9.538"/>
          </g>
          <g id="Grupo_41075" data-name="Grupo 41075">
            <rect id="Rectángulo_7408" data-name="Rectángulo 7408" width="184.096" height="9.005" transform="translate(1465.911 157.228)" fill="#9cd9db"/>
            <rect id="Rectángulo_7409" data-name="Rectángulo 7409" width="39.82" height="9.005" transform="translate(1465.911 157.228)" fill="#fff"/>
            <rect id="Rectángulo_7410" data-name="Rectángulo 7410" width="177.417" height="5.685" transform="translate(1469.86 166.233)" fill="#0b98cd"/>
            <rect id="Rectángulo_7411" data-name="Rectángulo 7411" width="32.034" height="5.685" transform="translate(1469.86 166.233)" fill="#0ca6e0"/>
          </g>
          <g id="Grupo_41076" data-name="Grupo 41076">
            <rect id="Rectángulo_7412" data-name="Rectángulo 7412" width="184.096" height="9.005" transform="translate(1465.911 103.885)" fill="#9cd9db"/>
            <rect id="Rectángulo_7413" data-name="Rectángulo 7413" width="39.82" height="9.005" transform="translate(1465.911 103.885)" fill="#fff"/>
            <rect id="Rectángulo_7414" data-name="Rectángulo 7414" width="177.417" height="5.685" transform="translate(1469.86 112.89)" fill="#0b98cd"/>
            <rect id="Rectángulo_7415" data-name="Rectángulo 7415" width="32.034" height="5.685" transform="translate(1469.86 112.89)" fill="#0ca6e0"/>
          </g>
        </g>
        <g id="Grupo_41079" data-name="Grupo 41079">
          <g id="Grupo_41078" data-name="Grupo 41078">
            <rect id="Rectángulo_7416" data-name="Rectángulo 7416" width="5.261" height="21.517" transform="translate(1517.361 120.707)" fill="#e1faff"/>
            <line id="Línea_143" data-name="Línea 143" x2="5.261" transform="translate(1517.361 120.707)" fill="none" stroke="#afe6ff" stroke-linecap="round" stroke-miterlimit="10" stroke-width="1.749"/>
          </g>
          <path id="Trazado_64182" data-name="Trazado 64182" d="M1522.5,139.228l7.753,13.847a2.872,2.872,0,0,1-2.506,4.275h-15.506a2.872,2.872,0,0,1-2.506-4.275l7.753-13.847A2.872,2.872,0,0,1,1522.5,139.228Z" fill="#e1faff"/>
        </g>
        <g id="Grupo_41081" data-name="Grupo 41081">
          <g id="Grupo_41080" data-name="Grupo 41080">
            <rect id="Rectángulo_7417" data-name="Rectángulo 7417" width="5.261" height="21.517" transform="translate(1492.857 120.707)" fill="#e1faff"/>
            <line id="Línea_144" data-name="Línea 144" x2="5.261" transform="translate(1492.857 120.707)" fill="none" stroke="#afe6ff" stroke-linecap="round" stroke-miterlimit="10" stroke-width="1.749"/>
          </g>
          <path id="Trazado_64183" data-name="Trazado 64183" d="M1497.994,139.228l7.753,13.847a2.872,2.872,0,0,1-2.506,4.275h-15.506a2.872,2.872,0,0,1-2.506-4.275l7.753-13.847A2.872,2.872,0,0,1,1497.994,139.228Z" fill="#e1faff"/>
        </g>
        <g id="Grupo_41083" data-name="Grupo 41083">
          <g id="Grupo_41082" data-name="Grupo 41082">
            <rect id="Rectángulo_7418" data-name="Rectángulo 7418" width="5.261" height="21.517" transform="translate(1565.302 120.707)" fill="#e1faff"/>
            <line id="Línea_145" data-name="Línea 145" x2="5.261" transform="translate(1565.302 120.707)" fill="none" stroke="#afe6ff" stroke-linecap="round" stroke-miterlimit="10" stroke-width="1.749"/>
          </g>
          <path id="Trazado_64184" data-name="Trazado 64184" d="M1570.439,139.228l7.753,13.847a2.872,2.872,0,0,1-2.506,4.275H1560.18a2.872,2.872,0,0,1-2.507-4.275l7.754-13.847A2.872,2.872,0,0,1,1570.439,139.228Z" fill="#e1faff"/>
        </g>
        <g id="Grupo_41085" data-name="Grupo 41085">
          <g id="Grupo_41084" data-name="Grupo 41084">
            <rect id="Rectángulo_7419" data-name="Rectángulo 7419" width="5.261" height="21.517" transform="translate(1540.799 120.707)" fill="#e1faff"/>
            <line id="Línea_146" data-name="Línea 146" x2="5.261" transform="translate(1540.799 120.707)" fill="none" stroke="#afe6ff" stroke-linecap="round" stroke-miterlimit="10" stroke-width="1.749"/>
          </g>
          <path id="Trazado_64185" data-name="Trazado 64185" d="M1545.935,139.228l7.753,13.847a2.872,2.872,0,0,1-2.506,4.275h-15.506a2.872,2.872,0,0,1-2.506-4.275l7.753-13.847A2.873,2.873,0,0,1,1545.935,139.228Z" fill="#e1faff"/>
        </g>
        <g id="Grupo_41086" data-name="Grupo 41086">
          <path id="Trazado_64186" data-name="Trazado 64186" d="M1586.142,143.289v13.939h58.31V143.289Zm48.4,9.487c-3.588,0-3.582-5.566,0-5.566S1638.122,152.776,1634.54,152.776Z" fill="#e1faff"/>
          <rect id="Rectángulo_7420" data-name="Rectángulo 7420" width="7.45" height="13.939" transform="translate(1595.899 143.289)" fill="#73c8f0"/>
        </g>
        <g id="Grupo_41087" data-name="Grupo 41087">
          <path id="Trazado_64187" data-name="Trazado 64187" d="M1591.916,129.269v13.939h58.31V129.269Zm48.932,9.54c-3.588,0-3.582-5.566,0-5.566S1644.429,138.809,1640.848,138.809Z" fill="#fff"/>
          <rect id="Rectángulo_7421" data-name="Rectángulo 7421" width="7.45" height="13.939" transform="translate(1601.672 129.269)" fill="#73c8f0"/>
        </g>
      </g>
    </g>
    <g id="Grupo_41094" data-name="Grupo 41094" opacity="0.4">
      <g id="Grupo_41091" data-name="Grupo 41091">
        <g id="Grupo_41090" data-name="Grupo 41090">
          <path id="Trazado_64188" data-name="Trazado 64188" d="M1705.5,95.316l42.9-42.9,42.9,42.9Z" fill="#e1faff"/>
          <path id="Trazado_64189" data-name="Trazado 64189" d="M1705.5,95.316l42.9-42.9-26.349,42.9Z" fill="#fff"/>
        </g>
        <rect id="Rectángulo_7422" data-name="Rectángulo 7422" width="18.743" height="11.444" transform="translate(1739.247 50.124)" fill="#0ca6e0"/>
        <rect id="Rectángulo_7423" data-name="Rectángulo 7423" width="4.979" height="11.444" transform="translate(1741.466 50.124)" fill="#73c8f0"/>
        <path id="Trazado_64190" data-name="Trazado 64190" d="M1755.231,50.124h-13.765a4.506,4.506,0,0,1,4.506-4.506h4.753a4.505,4.505,0,0,1,4.506,4.506Z" fill="#0073aa"/>
        <line id="Línea_147" data-name="Línea 147" y1="84.36" transform="translate(1748.349 -38.741)" fill="none" stroke="#0ca6e0" stroke-miterlimit="10" stroke-width="1.908"/>
      </g>
      <g id="Grupo_41093" data-name="Grupo 41093">
        <g id="Grupo_41092" data-name="Grupo 41092">
          <path id="Trazado_64191" data-name="Trazado 64191" d="M1506.276,95.316l42.9-42.9,42.9,42.9Z" fill="#e1faff"/>
          <path id="Trazado_64192" data-name="Trazado 64192" d="M1506.276,95.316l42.9-42.9-26.349,42.9Z" fill="#fff"/>
        </g>
        <rect id="Rectángulo_7424" data-name="Rectángulo 7424" width="18.743" height="11.444" transform="translate(1540.025 50.124)" fill="#0ca6e0"/>
        <rect id="Rectángulo_7425" data-name="Rectángulo 7425" width="4.979" height="11.444" transform="translate(1542.243 50.124)" fill="#73c8f0"/>
        <path id="Trazado_64193" data-name="Trazado 64193" d="M1556.008,50.124h-13.765a4.506,4.506,0,0,1,4.506-4.506h4.754a4.505,4.505,0,0,1,4.505,4.506Z" fill="#0073aa"/>
        <line id="Línea_148" data-name="Línea 148" y1="84.36" transform="translate(1549.126 -38.741)" fill="none" stroke="#0ca6e0" stroke-miterlimit="10" stroke-width="1.908"/>
      </g>
    </g>
    <g id="Grupo_41138" data-name="Grupo 41138">
      <g id="Grupo_41122" data-name="Grupo 41122">
        <rect id="Rectángulo_7426" data-name="Rectángulo 7426" width="31.809" height="4.832" transform="translate(1386.049 299.246)" fill="#1e1632"/>
        <rect id="Rectángulo_7427" data-name="Rectángulo 7427" width="53.676" height="15.884" rx="4.643" transform="translate(1377.255 284.181)" fill="#0073aa"/>
        <path id="Trazado_64194" data-name="Trazado 64194" d="M1384.322,386.379V330.626a17.631,17.631,0,0,1,17.631-17.631h0a17.632,17.632,0,0,1,17.632,17.631v55.753" fill="none" stroke="#1e1632" stroke-miterlimit="10" stroke-width="3.815"/>
        <rect id="Rectángulo_7428" data-name="Rectángulo 7428" width="8.657" height="9.865" transform="translate(1397.625 301.461)" fill="#1e1632"/>
        <path id="Trazado_64195" data-name="Trazado 64195" d="M1454.042,125.029c0,3.21-1.977,5.813-4.415,5.813s-4.416-2.6-4.416-5.813,1.977-5.814,4.416-5.814S1454.042,121.818,1454.042,125.029Z" fill="#ff9669"/>
        <g id="Grupo_41095" data-name="Grupo 41095">
          <path id="Trazado_64196" data-name="Trazado 64196" d="M1455.763,156.037c8.371,14.1,12.437,41.295,30.2,53.44,10.747,2.489,34.227,10.583,42.643,13.526a2.907,2.907,0,0,1,1.559,4.271,11.143,11.143,0,0,1-8.6,5s-35.427-4.965-48.173-10.032c-20.5-8.15-36.368-36.012-39.942-54.847S1451.924,149.571,1455.763,156.037Z" fill="#d2f0ff"/>
        </g>
        <path id="Trazado_64197" data-name="Trazado 64197" d="M1448.195,123.637h0l.9-14.731,5.128.384-.617,11.015C1453.447,122.357,1451.027,123.849,1448.195,123.637Z" fill="#1e1632"/>
        <g id="Grupo_41101" data-name="Grupo 41101">
          <g id="Grupo_41099" data-name="Grupo 41099">
            <g id="Grupo_41097" data-name="Grupo 41097">
              <g id="Grupo_41096" data-name="Grupo 41096">
                <path id="Trazado_64198" data-name="Trazado 64198" d="M1464.217,391.645h22.3a2.252,2.252,0,0,0,2.071-3.161c-.8-1.763-2.1-3.769-4.063-4.617-3.847-1.662-13.592-5.006-13.592-5.006l-8.22.218c-2.043,1.571-2.221,5.4-1.426,10.7C1461.448,390.863,1463.122,391.645,1464.217,391.645Z" fill="#1e1632"/>
                <path id="Trazado_64199" data-name="Trazado 64199" d="M1489.258,392.323h-27.7a1.272,1.272,0,0,1-1.272-1.271h0a1.273,1.273,0,0,1,1.272-1.272h27.7a1.272,1.272,0,0,1,1.271,1.272h0A1.271,1.271,0,0,1,1489.258,392.323Z" fill="#fff"/>
              </g>
              <path id="Trazado_64200" data-name="Trazado 64200" d="M1469.348,380.879a4.755,4.755,0,0,1-5.329,0,1.556,1.556,0,0,1-.749-1.318v-6.032h6.827v6.032A1.556,1.556,0,0,1,1469.348,380.879Z" fill="#fff"/>
            </g>
            <g id="Grupo_41098" data-name="Grupo 41098">
              <path id="Trazado_64201" data-name="Trazado 64201" d="M1478.149,373.965c7.87-35.384,11.1-83.684,11.1-83.684-6.537-3.223-23.8,9.466-23.8,9.466-10.394,12.978-5.338,43.192-4.371,74.218C1464.917,375.14,1473.857,375.016,1478.149,373.965Z" fill="#1e2d64"/>
            </g>
          </g>
          <g id="Grupo_41100" data-name="Grupo 41100">
            <path id="Trazado_64202" data-name="Trazado 64202" d="M1462.986,302.509s-41.949-12.129-43.056-27,.849-21.124.849-21.124l20.791.836a52.5,52.5,0,0,1,47.519,34.6c.055.155.109.311.163.467Z" fill="#1e2d64"/>
            <path id="Trazado_64203" data-name="Trazado 64203" d="M1426.136,285.184" fill="none" stroke="#0f1446" stroke-miterlimit="10" stroke-width="0.359"/>
            <path id="Trazado_64204" data-name="Trazado 64204" d="M1434.778,259.129" fill="none" stroke="#0f1446" stroke-miterlimit="10" stroke-width="0.359"/>
            <path id="Trazado_64205" data-name="Trazado 64205" d="M1426.889,348.672" fill="none" stroke="#0f1446" stroke-miterlimit="10" stroke-width="0.359"/>
            <path id="Trazado_64206" data-name="Trazado 64206" d="M1427.608,283.921" fill="none" stroke="#0f1446" stroke-miterlimit="10" stroke-width="0.359"/>
          </g>
        </g>
        <g id="Grupo_41107" data-name="Grupo 41107">
          <g id="Grupo_41105" data-name="Grupo 41105">
            <g id="Grupo_41103" data-name="Grupo 41103">
              <g id="Grupo_41102" data-name="Grupo 41102">
                <path id="Trazado_64207" data-name="Trazado 64207" d="M1430.49,391.645h22.3a2.252,2.252,0,0,0,2.071-3.161c-.8-1.763-2.1-3.769-4.063-4.617-3.847-1.662-13.592-5.006-13.592-5.006l-8.22.218c-2.044,1.571-2.221,5.4-1.426,10.7C1427.721,390.863,1429.4,391.645,1430.49,391.645Z" fill="#1e1632"/>
                <path id="Trazado_64208" data-name="Trazado 64208" d="M1455.531,392.323h-27.7a1.272,1.272,0,0,1-1.272-1.271h0a1.273,1.273,0,0,1,1.272-1.272h27.7a1.272,1.272,0,0,1,1.271,1.272h0A1.271,1.271,0,0,1,1455.531,392.323Z" fill="#fff"/>
              </g>
              <path id="Trazado_64209" data-name="Trazado 64209" d="M1435.621,380.879a4.755,4.755,0,0,1-5.329,0,1.556,1.556,0,0,1-.749-1.318v-6.032h6.827v6.032A1.556,1.556,0,0,1,1435.621,380.879Z" fill="#fff"/>
            </g>
            <g id="Grupo_41104" data-name="Grupo 41104">
              <path id="Trazado_64210" data-name="Trazado 64210" d="M1444.421,373.965c7.871-35.384,11.1-83.684,11.1-83.684-6.537-3.223-23.8,9.466-23.8,9.466-10.394,12.978-5.338,43.192-4.372,74.218C1431.19,375.14,1440.13,375.016,1444.421,373.965Z" fill="#1e2d64"/>
            </g>
          </g>
          <g id="Grupo_41106" data-name="Grupo 41106">
            <path id="Trazado_64211" data-name="Trazado 64211" d="M1429.259,302.509s-41.949-12.129-43.056-27,.849-21.124.849-21.124l41.524,1.67a64.711,64.711,0,0,1,26.949,34.228Z" fill="#1e2d64"/>
            <path id="Trazado_64212" data-name="Trazado 64212" d="M1398.7,265.949s.865,6.884-7.581,11.11Z" fill="#0f1446"/>
            <path id="Trazado_64213" data-name="Trazado 64213" d="M1401.051,259.129s8.929,14.676-8.642,26.055" fill="none" stroke="#0f1446" stroke-miterlimit="10" stroke-width="0.359"/>
            <path id="Trazado_64214" data-name="Trazado 64214" d="M1393.162,338.778" fill="none" stroke="#0f1446" stroke-miterlimit="10" stroke-width="0.359"/>
            <path id="Trazado_64215" data-name="Trazado 64215" d="M1393.881,283.921" fill="none" stroke="#0f1446" stroke-miterlimit="10" stroke-width="0.359"/>
          </g>
        </g>
        <path id="Trazado_64216" data-name="Trazado 64216" d="M1385.864,256.865s22.612,9.98,42.924,9.084,16.731-13.316,16.731-13.316S1394.529,252.832,1385.864,256.865Z" opacity="0.2"/>
        <path id="Trazado_64217" data-name="Trazado 64217" d="M1456.04,158.313a6.911,6.911,0,0,0-6.463-6.481c-13.564-.848-49.715-1.921-56.659,3.61-6.886,5.484-12.559,101.423-12.559,101.423s40.446,6.485,64.8-2.482C1445.154,254.383,1458.162,193.633,1456.04,158.313Z" fill="#e64b55"/>
        <path id="Trazado_64218" data-name="Trazado 64218" d="M1439.591,157.307c-1.059,5.1-7.136,8.156-13.574,6.82s-10.8-6.556-9.74-11.658,7.137-8.156,13.575-6.82S1440.65,152.205,1439.591,157.307Z" fill="#d72846"/>
        <g id="Grupo_41112" data-name="Grupo 41112">
          <g id="Grupo_41111" data-name="Grupo 41111">
            <g id="Grupo_41110" data-name="Grupo 41110">
              <path id="Trazado_64219" data-name="Trazado 64219" d="M1427.966,159.386h0a8.9,8.9,0,0,1-8.207-9.537l.979-13.065,17.745,1.329-.98,13.066A8.9,8.9,0,0,1,1427.966,159.386Z" fill="#ff9669"/>
              <path id="Trazado_64220" data-name="Trazado 64220" d="M1437.456,151.815c-7.538.05-12.622-3.434-17.28-7.532l.562-7.5,17.745,1.329Z" fill="#ff640a"/>
              <path id="Trazado_64221" data-name="Trazado 64221" d="M1437.508,147.657l-4.784-.359a8.529,8.529,0,0,1-4.4-1.605l-4.089-3a19.041,19.041,0,0,1-8.054-16.713l.808-13.057a11.2,11.2,0,0,1,12.021-10.481l23.484,1.759-1.951,30.3a4.674,4.674,0,0,1-.583,1.93C1448.326,139.367,1442.993,148.068,1437.508,147.657Z" fill="#ff9669"/>
              <g id="Grupo_41108" data-name="Grupo 41108">
                <path id="Trazado_64222" data-name="Trazado 64222" d="M1433.1,124.882c-.17,1.716-1.022,3.036-1.9,2.949s-1.458-1.549-1.288-3.265,1.021-3.036,1.9-2.949S1433.265,123.166,1433.1,124.882Z" fill="#1e1632"/>
                <path id="Trazado_64223" data-name="Trazado 64223" d="M1432.738,125.52c-.049.66-.375,1.174-.728,1.148s-.6-.583-.548-1.244.375-1.175.728-1.148S1432.788,124.859,1432.738,125.52Z" fill="#fff"/>
              </g>
              <g id="Grupo_41109" data-name="Grupo 41109">
                <path id="Trazado_64224" data-name="Trazado 64224" d="M1446.878,125.915c-.169,1.716-1.021,3.036-1.9,2.949s-1.458-1.549-1.288-3.265,1.021-3.036,1.9-2.949S1447.048,124.2,1446.878,125.915Z" fill="#1e1632"/>
                <path id="Trazado_64225" data-name="Trazado 64225" d="M1446.507,126.551c-.049.661-.375,1.175-.728,1.149s-.6-.584-.548-1.244.375-1.175.728-1.149S1446.557,125.891,1446.507,126.551Z" fill="#fff"/>
              </g>
              <path id="Trazado_64226" data-name="Trazado 64226" d="M1441.4,128.837v-.019a6.125,6.125,0,0,1-1.716-5.007s-1.848,3.711,1.689,5.355a2.286,2.286,0,0,1,.028.563,2.431,2.431,0,0,1-4,1.676,2.434,2.434,0,0,0,4.7-.7A2.408,2.408,0,0,0,1441.4,128.837Z" fill="#ff640a"/>
              <path id="Trazado_64227" data-name="Trazado 64227" d="M1449.441,131.95a2.771,2.771,0,1,1-2.532-2.341A2.472,2.472,0,0,1,1449.441,131.95Z" fill="#ff640a"/>
              <path id="Trazado_64228" data-name="Trazado 64228" d="M1430.462,130.527a2.771,2.771,0,1,1-2.532-2.34A2.47,2.47,0,0,1,1430.462,130.527Z" fill="#ff640a"/>
              <path id="Trazado_64229" data-name="Trazado 64229" d="M1433.579,121.093l-6.462-.484.109-1.455,9.362-.651h0A2.807,2.807,0,0,1,1433.579,121.093Z" fill="#1e1632"/>
              <path id="Trazado_64230" data-name="Trazado 64230" d="M1449.8,122.308l-6.461-.484.109-1.454,9.362-.651h0A2.808,2.808,0,0,1,1449.8,122.308Z" fill="#1e1632"/>
              <path id="Trazado_64231" data-name="Trazado 64231" d="M1441.038,135.235a3.991,3.991,0,1,1-7.96-.6" fill="none" stroke="#1e1632" stroke-miterlimit="10" stroke-width="0.584"/>
              <path id="Rectángulo_7429" data-name="Rectángulo 7429" d="M3.821,0H6.687a0,0,0,0,1,0,0V33.211a0,0,0,0,1,0,0H2.851A2.851,2.851,0,0,1,0,30.36V3.821A3.821,3.821,0,0,1,3.821,0Z" transform="translate(1413.823 101.307) rotate(4.288)" fill="#1e1632"/>
              <path id="Trazado_64232" data-name="Trazado 64232" d="M1418.491,122.519h0l1.577-19.5,3.945-1.251-1.282,17.105A3.955,3.955,0,0,1,1418.491,122.519Z" fill="#1e1632"/>
            </g>
          </g>
        </g>
        <rect id="Rectángulo_7430" data-name="Rectángulo 7430" width="133.483" height="86.955" rx="3.784" transform="translate(1530.34 123.811)" fill="#fff"/>
        <rect id="Rectángulo_7431" data-name="Rectángulo 7431" width="14.276" height="86.955" transform="translate(1597.524 149.865)" fill="#0e5998"/>
        <rect id="Rectángulo_7432" data-name="Rectángulo 7432" width="3.171" height="86.955" transform="translate(1594.352 149.865)" fill="#0ca6e0"/>
        <path id="Trazado_64233" data-name="Trazado 64233" d="M1534.853,210.766h0a4.512,4.512,0,0,1-4.513-4.513V128.324a4.513,4.513,0,0,1,4.513-4.513h0a4.514,4.514,0,0,1,4.513,4.513v77.929A4.513,4.513,0,0,1,1534.853,210.766Z" fill="#0ca6e0"/>
        <path id="Trazado_64234" data-name="Trazado 64234" d="M1625.506,238.721h-57.922a5.863,5.863,0,0,1,5.862-5.862h46.2a5.862,5.862,0,0,1,5.862,5.862Z" fill="#0ca6e0"/>
        <g id="Grupo_41113" data-name="Grupo 41113">
          <rect id="Rectángulo_7433" data-name="Rectángulo 7433" width="9.283" height="146.245" transform="translate(1491.267 247.209)" fill="#9cd9db"/>
        </g>
        <g id="Grupo_41114" data-name="Grupo 41114">
          <rect id="Rectángulo_7434" data-name="Rectángulo 7434" width="9.283" height="28.326" transform="translate(1491.267 247.209)" fill="#0e5998"/>
        </g>
        <g id="Grupo_41115" data-name="Grupo 41115">
          <rect id="Rectángulo_7435" data-name="Rectángulo 7435" width="9.283" height="146.245" transform="translate(1426.859 247.209)" fill="#fff"/>
        </g>
        <g id="Grupo_41116" data-name="Grupo 41116">
          <rect id="Rectángulo_7436" data-name="Rectángulo 7436" width="9.283" height="28.326" transform="translate(1426.859 247.209)" fill="#0e5998"/>
        </g>
        <g id="Grupo_41117" data-name="Grupo 41117">
          <rect id="Rectángulo_7437" data-name="Rectángulo 7437" width="9.283" height="146.245" transform="translate(1797.596 247.209)" fill="#9cd9db"/>
        </g>
        <g id="Grupo_41118" data-name="Grupo 41118">
          <rect id="Rectángulo_7438" data-name="Rectángulo 7438" width="9.283" height="28.326" transform="translate(1797.596 247.209)" fill="#0e5998"/>
        </g>
        <g id="Grupo_41119" data-name="Grupo 41119">
          <rect id="Rectángulo_7439" data-name="Rectángulo 7439" width="9.283" height="146.245" transform="translate(1733.188 247.209)" fill="#fff"/>
        </g>
        <g id="Grupo_41120" data-name="Grupo 41120">
          <rect id="Rectángulo_7440" data-name="Rectángulo 7440" width="9.283" height="28.326" transform="translate(1733.188 247.209)" fill="#0e5998"/>
        </g>
        <path id="Trazado_64235" data-name="Trazado 64235" d="M1443.985,111.08l-27.453-1.792.568-7.58c.276-3.687,5.267-6.334,11.209-5.947l30.7,2-.433,5.785C1458.226,108.233,1451.731,111.585,1443.985,111.08Z" fill="#1e1632"/>
        <path id="Trazado_64236" data-name="Trazado 64236" d="M1453.885,114.833l-.529-.033a8.593,8.593,0,0,1-8.026-9.217l.417-5.558,1.692.107a7.44,7.44,0,0,1,6.949,7.981Z" fill="#1e1632"/>
        <path id="Trazado_64237" data-name="Trazado 64237" d="M1513.324,231.109s3.252-5.088,4.743-5.63,7.994-1.491,11.246-.813,9.6,6.443,9.6,6.443Z" fill="#ff9669"/>
        <path id="Rectángulo_7441" data-name="Rectángulo 7441" d="M3.109,0h52.02a3.109,3.109,0,0,1,3.109,3.109v4.5a0,0,0,0,1,0,0H0a0,0,0,0,1,0,0v-4.5A3.109,3.109,0,0,1,3.109,0Z" transform="translate(1485.717 231.109)" fill="#0ca6e0"/>
        <rect id="Rectángulo_7442" data-name="Rectángulo 7442" width="398.849" height="16.977" transform="translate(1417.354 238.721)" fill="#9cd9db"/>
        <rect id="Rectángulo_7443" data-name="Rectángulo 7443" width="88.769" height="16.977" transform="translate(1417.354 238.721)" fill="#fff"/>
        <rect id="Rectángulo_7444" data-name="Rectángulo 7444" width="389.151" height="10.718" transform="translate(1423.088 255.698)" fill="#0e5998"/>
        <rect id="Rectángulo_7445" data-name="Rectángulo 7445" width="77.461" height="10.718" transform="translate(1423.088 255.698)" fill="#0ca6e0"/>
        <ellipse id="Elipse_806" data-name="Elipse 806" cx="4.647" cy="6.118" rx="4.647" ry="6.118" transform="translate(1412.689 116.427)" fill="#ff9669"/>
        <path id="Trazado_64238" data-name="Trazado 64238" d="M1454.875,238.752l1.805-78.909a8.507,8.507,0,0,0-8.5-8.7h-9.316l-5.9,43.262,6.027,44.348Z" fill="#d2f0ff"/>
        <path id="Trazado_64239" data-name="Trazado 64239" d="M1417.986,120.05a3.748,3.748,0,0,1,0,5.191,2.633,2.633,0,0,0,0-5.191Z" fill="#ff640a"/>
        <path id="Trazado_64240" data-name="Trazado 64240" d="M1418.877,289.757h-18.383a20.136,20.136,0,0,1-20.135-20.136v-96.8a21.681,21.681,0,0,1,21.681-21.681h16.451l5.9,43.261Z" fill="#d2f0ff"/>
        <g id="Grupo_41121" data-name="Grupo 41121">
          <path id="Trazado_64241" data-name="Trazado 64241" d="M1406.509,158.11c7.618,13.6,13.082,41.007,28.481,52.439,11.174,2.643,36.312,12.549,43.788,15.537a3.7,3.7,0,0,1,2.357,3.327,14.208,14.208,0,0,1-1.042,5.7,3.755,3.755,0,0,1-3.538,2.358c-9.072-.153-42.421-1.255-53.49-9.168-11.158-7.976-36.6-32.8-39.908-51.687C1378.527,150.147,1402.834,151.549,1406.509,158.11Z" fill="#fff"/>
        </g>
        <path id="Trazado_64242" data-name="Trazado 64242" d="M1479.329,228.709s10.35-2.3,13.636-1.479,6.9,2.666,7.064,3.879-6.243,0-6.243,0a3.237,3.237,0,0,1-2.3,1.75c-1.807.45-2.667,4.724-5.769,4.64s-8.852-2.584-8.852-2.584S1474.926,230.361,1479.329,228.709Z" fill="#ff9669"/>
        <path id="Rectángulo_7446" data-name="Rectángulo 7446" d="M0,0H21.569a0,0,0,0,1,0,0V24.1a4.419,4.419,0,0,1-4.419,4.419H4.419A4.419,4.419,0,0,1,0,24.1V0A0,0,0,0,1,0,0Z" transform="translate(1391.12 234.915)" fill="#fff"/>
        <path id="Trazado_64243" data-name="Trazado 64243" d="M1419.951,147.29l-10.773,3.852,1.89,16.924h5.065l-2.3,4.092L1424.39,194.4Z" fill="#fff"/>
        <path id="Trazado_64244" data-name="Trazado 64244" d="M1437.4,147.29l10.773,3.852-1.89,16.924h-5.065l2.3,4.092L1432.961,194.4Z" fill="#fff"/>
      </g>
      <g id="Grupo_41137" data-name="Grupo 41137">
        <path id="Trazado_64245" data-name="Trazado 64245" d="M1675.014,244.178a10.32,10.32,0,0,1-6.209-6.028l8.7-1.659Z" fill="#d2f0ff"/>
        <path id="Trazado_64246" data-name="Trazado 64246" d="M1675.014,244.178a10.32,10.32,0,0,1-6.209-6.028l8.7-1.659Z" fill="#afe6ff"/>
        <path id="Trazado_64247" data-name="Trazado 64247" d="M1765.6,70.388c3.057,5.452,25.966,12.613,36.133,6.743s12.786-20.367,5.85-32.38-20.8-16.994-30.967-11.124S1761.521,63.109,1765.6,70.388Z" fill="#fac855"/>
        <path id="Trazado_64248" data-name="Trazado 64248" d="M1769.333,67.967c1.863,3.269,8.586,11.441,11.364,9.837s4.086-9.955-.09-17.188-11.273-8.279-14.051-6.675S1766.846,63.6,1769.333,67.967Z" fill="#0ca6e0"/>
        <path id="Trazado_64249" data-name="Trazado 64249" d="M1763.331,126.519h3.325c6.673,0,13.615-5.806,14-12.469.242-4.179,0-16.744,0-16.744l-17.326-25.959Z" fill="#fac855"/>
        <g id="Grupo_41124" data-name="Grupo 41124">
          <g id="Grupo_41123" data-name="Grupo 41123">
            <path id="Trazado_64250" data-name="Trazado 64250" d="M1725.4,667.437l-2.117-9.779-1.562,3.443a13.435,13.435,0,0,1-12.853,7.871l-13.256-.61a3.927,3.927,0,0,1-3.611-5.513c1.4-3.074,25.148-20.548,25.148-20.548l12.386.328a3.516,3.516,0,0,1,3.381,2.991c.726,4.7-1.6,13.232-2.687,20.454C1729.946,667.963,1727.311,667.437,1725.4,667.437Z" fill="#1e2d64"/>
          </g>
          <path id="Trazado_64251" data-name="Trazado 64251" d="M1712.353,650.51c3.225,1.676,13.755-2.789,16.853-4.69a2.711,2.711,0,0,0,1.306-2.3V633h-14.457l1.094,9.3S1708.729,648.627,1712.353,650.51Z" fill="#ff9669"/>
        </g>
        <g id="Grupo_41126" data-name="Grupo 41126">
          <g id="Grupo_41125" data-name="Grupo 41125">
            <path id="Trazado_64252" data-name="Trazado 64252" d="M1809.531,671.548s-12.812,0-20.229-8.091a25.106,25.106,0,0,1-6.657-19.764,3.13,3.13,0,0,1,3.175-2.785l10.336.191s13.977,9.612,17.043,21.851C1813.892,665.717,1812.608,671.548,1809.531,671.548Z" fill="#1e2d64"/>
          </g>
          <path id="Trazado_64253" data-name="Trazado 64253" d="M1802.383,654.635c3.478-1.093-5.865-12.907-5.865-13.846v-10.52h-14.457l2.551,10.52C1784.612,641.728,1793.617,657.388,1802.383,654.635Z" fill="#ff9669"/>
        </g>
        <g id="Grupo_41127" data-name="Grupo 41127">
          <path id="Trazado_64254" data-name="Trazado 64254" d="M1716.055,633c-13.727-61.714-22.423-145.2-22.423-145.2,11.4-5.622,33.076,16.512,33.076,16.512,18.13,22.635,5.49,74.572,3.8,128.686C1723.819,635.051,1723.54,634.834,1716.055,633Z" fill="#ff9669"/>
          <path id="Trazado_64255" data-name="Trazado 64255" d="M1729.5,512.954s19.33-109.251,22.3-135.094,0-39.7,0-39.7l-56.361-6.071-5.9,49.856a69.7,69.7,0,0,0-.977,19.271l5.062,87.582Z" fill="#ff9669"/>
        </g>
        <g id="Grupo_41128" data-name="Grupo 41128">
          <path id="Trazado_64256" data-name="Trazado 64256" d="M1796.518,630.269c-.289-53.558,11.508-74.644-1.222-130.069,0,0-29.963-21.508-41.13-15.432,0,0,13.172,84.208,27.9,145.5C1789.115,632.7,1789.221,632.861,1796.518,630.269Z" fill="#ff9669"/>
          <path id="Trazado_64257" data-name="Trazado 64257" d="M1795.3,500.2s10.208-101.672,12.139-127.614-1.482-36.842-1.482-36.842l-72.424,2.911L1754.2,485.76Z" fill="#ff9669"/>
          <path id="Trazado_64258" data-name="Trazado 64258" d="M1785.636,355.916s-1.508,12.007,13.223,19.378Z" fill="#f28013"/>
        </g>
        <path id="Trazado_64259" data-name="Trazado 64259" d="M1808.026,340.072s-39.069,12.764-74.5,11.2-38.084-19.188-38.084-19.188S1792.912,333.038,1808.026,340.072Z" opacity="0.2" style="mix-blend-mode: overlay;isolation: isolate"/>
        <path id="Trazado_64260" data-name="Trazado 64260" d="M1670.436,238.005l30.62-6.256-15.262-35.166-15.357,9.4Z" fill="#ff9669"/>
        <path id="Trazado_64261" data-name="Trazado 64261" d="M1694.238,137.338s-2.091,8.355,1.589,11.115,12.522-.6,12.522-.6S1710.688,134.387,1694.238,137.338Z" fill="#ff9669"/>
        <g id="Grupo_41129" data-name="Grupo 41129">
          <rect id="Rectángulo_7447" data-name="Rectángulo 7447" width="30.359" height="46.956" rx="1.589" transform="translate(1734.743 142.429) rotate(159.446)" fill="#d2f0ff"/>
          <rect id="Rectángulo_7448" data-name="Rectángulo 7448" width="22.873" height="38.574" transform="translate(1729.767 139.819) rotate(159.446)" fill="#0ca6e0"/>
        </g>
        <path id="Trazado_64262" data-name="Trazado 64262" d="M1699.489,176.142l-17.223,21.572c3.419,6.373,5.948,34.782,4.663,43.779,13.24-5.748,29.475-16.378,40.216-26.2,9.132-8.351,23.956-30.629,19.809-37.292C1739.644,166.253,1705.315,170.341,1699.489,176.142Z" fill="#d2f0ff"/>
        <path id="Trazado_64263" data-name="Trazado 64263" d="M1689.436,340.908c19.37-94.961-11.154-115.959,3.045-150.375,8.043-19.493,19.823-35.032,48.248-33.312,0,0,25.544-4.735,40.715,7.348,11.8,9.4,21.132,18.725,21.017,49.167-.133,35.44-.872,95.873-.872,95.873l13.46,174.077s-41.821,13.785-71.816,12.448l-6.866-58.382-3.944,57.789c-24.428-1.608-57.81-11.855-57.81-11.855S1682.266,378.5,1689.436,340.908Z" fill="#d2f0ff"/>
        <path id="Trazado_64264" data-name="Trazado 64264" d="M1802.461,213.736h0c-.039,10.335-.129,22.8-.238,35.263-8.429-13.874-15.409-28.726-19.625-44.439a119.159,119.159,0,0,1-3.76-41.833,29.7,29.7,0,0,1,2.606,1.842C1793.244,173.968,1798.383,183.568,1802.461,213.736Z" fill="#afe6ff"/>
        <path id="Trazado_64265" data-name="Trazado 64265" d="M1758.508,261.618s-30.505-16.079-54.272.785Z" fill="#afe6ff"/>
        <path id="Trazado_64266" data-name="Trazado 64266" d="M1740.686,213.057s-29.905-66.119.043-55.836c0,0,14.947-2.766,28.765,1.343Z" fill="#ff9669"/>
        <rect id="Rectángulo_7449" data-name="Rectángulo 7449" width="25.209" height="28.729" transform="translate(1758.781 161.494) rotate(-180)" fill="#ff9669"/>
        <path id="Trazado_64267" data-name="Trazado 64267" d="M1733.572,156.31c10.645,1.051,18.2-4.251,25.209-10.658V132.764h-25.209Z" fill="#ff640a"/>
        <path id="Trazado_64268" data-name="Trazado 64268" d="M1731.373,149.2h8.221a14.625,14.625,0,0,0,7.724-2.18l7.37-4.6c9.951-6.206,15.9-16.511,15.9-27.529V80.3h-59.811v44.758a7.982,7.982,0,0,0,.748,3.373C1713.949,133.646,1721.948,149.2,1731.373,149.2Z" fill="#ff9669"/>
        <g id="Grupo_41130" data-name="Grupo 41130">
          <path id="Trazado_64269" data-name="Trazado 64269" d="M1747.324,110.712c-.071-2.954-1.357-5.319-2.874-5.284s-2.69,2.46-2.62,5.415" fill="none" stroke="#1d2d32" stroke-miterlimit="10" stroke-width="0.599"/>
        </g>
        <g id="Grupo_41131" data-name="Grupo 41131">
          <path id="Trazado_64270" data-name="Trazado 64270" d="M1723.638,110.712c-.07-2.954-1.357-5.319-2.874-5.284s-2.689,2.46-2.62,5.415" fill="none" stroke="#1d2d32" stroke-miterlimit="10" stroke-width="0.599"/>
        </g>
        <path id="Trazado_64271" data-name="Trazado 64271" d="M1763.331,111.978c0,5.618,4.053,10.172,9.052,10.172s9.053-4.554,9.053-10.172-4.053-10.171-9.053-10.171S1763.331,106.361,1763.331,111.978Z" fill="#ff9669"/>
        <path id="Trazado_64272" data-name="Trazado 64272" d="M1769.026,111.978a3.583,3.583,0,0,0,3.357,3.772c-1.182-2.641-1.791-4.972,0-7.543A3.582,3.582,0,0,0,1769.026,111.978Z" fill="#ff640a"/>
        <path id="Trazado_64273" data-name="Trazado 64273" d="M1727.065,117.558v-.034s4.061-3.372,3.574-8.335c0,0,2.682,6.578-3.573,8.934a3.977,3.977,0,0,0-.12.959,4.165,4.165,0,0,0,6.626,3.375,4.17,4.17,0,0,1-7.935-1.8A4.124,4.124,0,0,1,1727.065,117.558Z" fill="#ff640a"/>
        <path id="Trazado_64274" data-name="Trazado 64274" d="M1713.311,122.1c0,2.029,2.071,3.675,4.626,3.675s4.625-1.646,4.625-3.675-2.071-3.676-4.625-3.676S1713.311,120.07,1713.311,122.1Z" fill="#ff640a"/>
        <path id="Trazado_64275" data-name="Trazado 64275" d="M1744.972,122.1c0,2.029,2.07,3.675,4.625,3.675s4.625-1.646,4.625-3.675-2.07-3.676-4.625-3.676S1744.972,120.07,1744.972,122.1Z" fill="#ff640a"/>
        <path id="Trazado_64276" data-name="Trazado 64276" d="M1741.49,104.306h11.1v-2.5L1736.679,99.5h0A4.811,4.811,0,0,0,1741.49,104.306Z" fill="#d77d14"/>
        <path id="Trazado_64277" data-name="Trazado 64277" d="M1710.781,99.5h0c6.742,0,12.534-5.2,13.8-12.386l.354-2.013h0c2.61,8.593,10.006,14.4,18.344,14.4h29.105V79.089c0-12.887-9.626-23.333-21.5-23.333h-18.6c-11.875,0-21.5,10.446-21.5,23.333Z" fill="#ff640a"/>
        <path id="Trazado_64278" data-name="Trazado 64278" d="M1713.617,104.306h11.1v-2.5L1708.806,99.5h0A4.811,4.811,0,0,0,1713.617,104.306Z" fill="#d77d14"/>
        <path id="Trazado_64279" data-name="Trazado 64279" d="M1705.532,97.306h0a15.735,15.735,0,0,0,15.61-12.386l.4-2.013h0a21.79,21.79,0,0,0,20.752,14.4h38.362V76.9c0-12.887-10.89-23.334-24.324-23.334h-26.477c-13.434,0-24.324,10.447-24.324,23.334Z" fill="#fac855"/>
        <path id="Trazado_64280" data-name="Trazado 64280" d="M1727.006,126.519a6.84,6.84,0,0,0,13.68,0Z" fill="#fff"/>
        <path id="Trazado_64281" data-name="Trazado 64281" d="M1763.048,168.922h-16.871c-1.4,0-4.35,4.235-4.35,4.235Z" fill="#ff640a"/>
        <path id="Trazado_64282" data-name="Trazado 64282" d="M1736.19,173.157s-2.793-3.521-4.388-4.235-12.14,0-12.14,0Z" fill="#ff640a"/>
        <path id="Trazado_64283" data-name="Trazado 64283" d="M1690.349,227.98l-3.421,13.513,5.307-2.483Z" opacity="0.1"/>
        <path id="Trazado_64284" data-name="Trazado 64284" d="M1689.695,134.323a12.77,12.77,0,0,1,6.324-12.6c3.4-1.972,6.978-3.719,7.539-2.7,1.37,2.492-8.944,9.518-8.944,9.518s8.095-4.7,9.622-3.71-7.327,7.93-7.327,7.93,7.287-3.86,8.623-2.825-6.272,6.976-6.272,6.976,5.734-3.142,7.193-1.48c.8.909-6.851,11.583-12.6,7.793C1691.278,141.532,1690.153,137.862,1689.695,134.323Z" fill="#ff9669"/>
        <path id="Trazado_64285" data-name="Trazado 64285" d="M1704.236,148.527s-18.073,58.449-28.767,85.407a6.732,6.732,0,0,1-10.475,2.73c-7.01-5.527-15.81-15.378-10.382-27.347,12.453-27.458,39.239-66.089,39.239-66.089Z" fill="#ff9669"/>
        <g id="Grupo_41132" data-name="Grupo 41132">
          <path id="Trazado_64286" data-name="Trazado 64286" d="M1728.358,110.305a10.06,10.06,0,0,1-20.119,0Z" fill="none" stroke="#fff" stroke-miterlimit="10" stroke-width="0.598"/>
          <path id="Trazado_64287" data-name="Trazado 64287" d="M1755.68,110.305a10.06,10.06,0,0,1-20.119,0Z" fill="none" stroke="#fff" stroke-miterlimit="10" stroke-width="0.598"/>
          <line id="Línea_149" data-name="Línea 149" x2="7.203" transform="translate(1728.358 110.305)" fill="none" stroke="#fff" stroke-miterlimit="10" stroke-width="0.598"/>
          <line id="Línea_150" data-name="Línea 150" y1="8.298" x2="14.912" transform="translate(1755.68 102.007)" fill="none" stroke="#fff" stroke-miterlimit="10" stroke-width="0.598"/>
        </g>
        <path id="Rectángulo_7450" data-name="Rectángulo 7450" d="M4.419,0H31.148a4.419,4.419,0,0,1,4.419,4.419v42.6a0,0,0,0,1,0,0H0a0,0,0,0,1,0,0V4.419A4.419,4.419,0,0,1,4.419,0Z" transform="translate(1791.263 393.476) rotate(-180)" fill="#fff"/>
        <path id="Rectángulo_7451" data-name="Rectángulo 7451" d="M4.419,0H27.913a0,0,0,0,1,0,0V47.02a0,0,0,0,1,0,0H0a0,0,0,0,1,0,0V4.419A4.419,4.419,0,0,1,4.419,0Z" transform="translate(1710.019 390.732) rotate(-180)" fill="#fff"/>
        <path id="Trazado_64288" data-name="Trazado 64288" d="M1868.812,309.609l.74-5.55a4.877,4.877,0,0,0-4.347-5.5l-21.825-2.193-2.427,13.24Z" fill="#0ca6e0"/>
        <g id="Grupo_41133" data-name="Grupo 41133">
          <path id="Rectángulo_7452" data-name="Rectángulo 7452" d="M0,0H68.259a3.85,3.85,0,0,1,3.85,3.85V94.244a3.85,3.85,0,0,1-3.85,3.85H3.85A3.85,3.85,0,0,1,0,94.244V0A0,0,0,0,1,0,0Z" transform="translate(1855.943 307.872) rotate(98.352)" fill="#0ca6e0"/>
        </g>
        <g id="Grupo_41134" data-name="Grupo 41134">
          <path id="Rectángulo_7453" data-name="Rectángulo 7453" d="M0,0H68.259a3.85,3.85,0,0,1,3.85,3.85V94.244a3.85,3.85,0,0,1-3.85,3.85H3.85A3.85,3.85,0,0,1,0,94.244V0A0,0,0,0,1,0,0Z" transform="translate(1860.684 308.466) rotate(98.352)" fill="#fff"/>
        </g>
        <g id="Grupo_41135" data-name="Grupo 41135">
          <path id="Rectángulo_7454" data-name="Rectángulo 7454" d="M0,0H68.259a3.85,3.85,0,0,1,3.85,3.85V94.244a3.85,3.85,0,0,1-3.85,3.85H3.85A3.85,3.85,0,0,1,0,94.244V0A0,0,0,0,1,0,0Z" transform="translate(1868.812 309.608) rotate(98.352)" fill="#0ca6e0"/>
        </g>
        <g id="Grupo_41136" data-name="Grupo 41136">
          <path id="Trazado_64289" data-name="Trazado 64289" d="M1777.343,210.209s46.386,23.352,51.3,62.366c-4.352,22.849-15.912,83.691-15.912,83.691l11.358,2.632s30.711-67.963,28.693-91.381-21.163-68.325-48.215-86.967S1767.121,202.362,1777.343,210.209Z" fill="#ff9669"/>
          <path id="Trazado_64290" data-name="Trazado 64290" d="M1772.537,208.414s22.484,14.324,37.746,33.367c9.116-5.949,21.211-8.742,27.437-26.382-7.45-12.363-21.992-28.054-33.151-37.4-9.488-7.945-25.731-15.272-25.731-15.272C1768.165,171.528,1766.015,203.408,1772.537,208.414Z" fill="#d2f0ff"/>
          <path id="Trazado_64291" data-name="Trazado 64291" d="M1813.435,352.569s-6.406,3.241-9.725,7.55c-4.876,6.331-6.532,10.907-5.331,11.6,1.725.99,6.73-5.529,6.943-5.4.574.337-3.217,10.752-1.569,11.55,2.4,1.164,5-5.3,5.728-3.912s-1.467,6.121.88,6.955c2.545.9,3.2-4.506,4.312-4.432s-.711,5.141,2,5.393c2.948.274,2.59-4.683,4.331-4.809.705-.051-.165,4.431,2.578,4.689s2.07-7.8,2.06-8.768,4.414-12.462-4.413-18.795Z" fill="#ff9669"/>
        </g>
        <path id="Trazado_64292" data-name="Trazado 64292" d="M1758.508,149.54l22.149,10.878-15.2,19.3-4.4-1.926-2.551,12.9-17.822,22.369Z" fill="#fff"/>
        <path id="Trazado_64293" data-name="Trazado 64293" d="M1733.572,152.2c-8.981,16.9-1.128,38.817,7.115,60.853-8.527-11.965-16.673-23.768-19.233-33.2l2.285-8.34h-8.155l-2.273-10.026Z" fill="#fff"/>
        <path id="Trazado_64294" data-name="Trazado 64294" d="M1837.72,215.4s-4.7,13.062-27.437,26.382l8.013,11.3s22.252-10.115,27.916-23.466Z" fill="#fff"/>
        <path id="Trazado_64295" data-name="Trazado 64295" d="M1686.929,241.493l-11.915,2.685a46.688,46.688,0,0,0,0-11.935L1685.2,207.1A150.307,150.307,0,0,1,1686.929,241.493Z" fill="#fff"/>
        <path id="Trazado_64296" data-name="Trazado 64296" d="M1736.367,437.752l-2.838-99.1L1720.98,494.284l11.444,1.257Z" fill="#afe6ff"/>
        <rect id="Rectángulo_7455" data-name="Rectángulo 7455" width="38.446" height="26.192" transform="translate(1725.815 247.832) rotate(-180)" fill="#0ca6e0"/>
        <rect id="Rectángulo_7456" data-name="Rectángulo 7456" width="38.446" height="26.192" transform="translate(1720.713 247.832) rotate(-180)" fill="#fff"/>
      </g>
    </g>
  </g>
</svg>
