<svg xmlns="http://www.w3.org/2000/svg" width="234.59" height="210.259" viewBox="0 0 234.59 210.259">
  <g id="Grupo_41045" data-name="Grupo 41045" transform="translate(-1051.41 -972.998)">
    <circle id="Elipse_739" data-name="Elipse 739" cx="98" cy="98" r="98" transform="translate(1069 972.998)" fill="#005ea6"/>
    <path id="Trazado_63044" data-name="Trazado 63044" d="M481.776,487.938c-16.487-4.073-29.547-7.753-29.9-25.221-.187-9.039,3.846-15.278,13.383-20.292,7.711-4.055,11.669-5.448,13.443-13.449,2.836-12.8-3.343-25.429,4.721-37.813,9-13.814,29.3-7.515,38.676-20.041,8.408-11.238,13.018-25.806,30.787-25.6,14.955.172,21.055,15.793,14.653,26.63-3.6,6.1-9.91,10.4-12.469,16.925-2.441,6.23.238,11.322,2.64,17.012,5.3,12.571,6.589,25.532-7.838,33.837-8.622,4.966-15.268,9.325-12.161,18.635,3.264,9.784,4.727,15.368-7.153,22.732-8.882,5.506-16.979,5.059-27.179,5.485-9.561.4-22.334,3.017-31.36-1.125Z" transform="translate(715.937 678.936)" fill="#fc3"/>
    <path id="Trazado_63045" data-name="Trazado 63045" d="M465.656,462.126a12.394,12.394,0,0,1-2.794-4.921c-1.988-7.325,4.981-14.668,11.3-21.32,3.183-3.349,6.221-6.553,7.648-9.283,3.892-7.44,5.056-14.077,4.23-24.482-.99-12.339,2.326-17.386,12.4-25.547,8.486-6.887,16.879-14.472,19.245-21.984a1.336,1.336,0,0,1,1.665-.706,1.193,1.193,0,0,1,1,1.409c-2.525,7.989-11.214,15.808-19.978,22.874-9.753,7.85-12.77,12.405-11.856,24.144.694,8.87.187,16.547-4.447,25.342-1.529,2.914-4.655,6.185-7.922,9.606-6.1,6.384-12.846,13.437-11.066,20,.685,2.531,2.585,4.851,5.817,7.093.525.38.706.962.371,1.315a1.276,1.276,0,0,1-1.578-.039A22.768,22.768,0,0,1,465.656,462.126Z" transform="translate(737.409 695.688)" fill="#fff"/>
    <path id="Trazado_63046" data-name="Trazado 63046" d="M470.668,387.692a1.029,1.029,0,0,1-.29-.637c-.024-.546.507-.935,1.189-.86,5.964.649,10.369-4,15.118-9.017,4.206-4.438,8.622-9.1,14.665-10.375a1.626,1.626,0,0,1,1.741.769.9.9,0,0,1-.751,1.288c-5.3,1.1-9.509,5.521-13.516,9.723-4.927,5.165-9.916,10.408-17.163,9.606A1.617,1.617,0,0,1,470.668,387.692Z" transform="translate(753.265 721.792)" fill="#fff"/>
    <path id="Trazado_63047" data-name="Trazado 63047" d="M477.5,412.583a1.22,1.22,0,0,1-.22-.35,20.4,20.4,0,0,1-1.062-3.955,11.468,11.468,0,0,0-2.447-5.844,34.127,34.127,0,0,0-2.948-3.107c-2.085-2.045-4.248-4.13-5.219-7.482-1.385-4.791-1.3-10.749.284-17.769a34.322,34.322,0,0,1,1.267-3.81c.775-2.1,2.232-6.034,1.75-6.912a.883.883,0,0,1,.492-1.321,1.433,1.433,0,0,1,1.62.522c1,1.5.081,4.251-1.53,8.562a35.423,35.423,0,0,0-1.219,3.614c-1.062,4.664-1.97,11.353-.341,16.988.809,2.818,2.564,4.519,4.613,6.5a38.038,38.038,0,0,1,3.174,3.358,13.43,13.43,0,0,1,2.893,6.776,18.863,18.863,0,0,0,.965,3.638.8.8,0,0,1-.763,1.1A1.618,1.618,0,0,1,477.5,412.583Z" transform="translate(741.672 712.088)" fill="#fff"/>
    <path id="Trazado_63048" data-name="Trazado 63048" d="M443.921,486.921c-17.139-3.113-33.185-1.792-40.124-20.554-5.488-14.849,7.31-28.838-5.569-39.041-7.753-6.139-19.981-9.823-22.684-20.318-2.815-10.936,11.174-17.866,8.658-28.356-2.079-8.671-14.11-9.247-10.969-20.539,2.785-10.016,11.6-12.538,18.6-10.541,9.364,2.676,10.14,11.244,16.354,17.193,4.148,3.97,10.025-.021,16.113-.751,6.061-.73,13.823-.19,18.955,2.483,16.677,8.686,3.313,27.082,6.341,42.055,2.929,14.475,23.311,5.726,33.84,16.6,12.3,12.7,3.023,34.661-9.1,45.027C466.264,477.083,455.5,489.024,443.921,486.921Z" transform="translate(704.704 656.812) rotate(3)" fill="#f34f95"/>
    <path id="Trazado_63049" data-name="Trazado 63049" d="M447.418,471.351a.85.85,0,0,1-.278.106,1.076,1.076,0,0,1-1.279-.727c-.115-.386-11.268-37.663-38.423-62.211-15.286-13.814-18.922-28.087-21.761-39.237-1.656-6.507-3.068-12.049-6.32-15.045a.829.829,0,0,1,.063-1.1.719.719,0,0,1,1.02-.226c3.509,3.213,4.972,8.921,6.691,15.63,2.824,11.005,6.435,25.088,21.516,38.613,27.7,24.844,39.1,62.708,39.213,63.1A.941.941,0,0,1,447.418,471.351Z" transform="translate(717.113 669.265) rotate(3)" fill="#fff"/>
    <path id="Trazado_63050" data-name="Trazado 63050" d="M389.775,402.085a.815.815,0,0,1-1.1-.039.893.893,0,0,1,.106-1.225c5.494-5.415,9.063-15.854,5.485-22.43-.422-.775-.914-1.6-1.427-2.462-2.438-4.076-5.412-9.057-3.862-13.911a12.7,12.7,0,0,1,5.3-6.4.755.755,0,0,1,1.134.154,1.008,1.008,0,0,1-.425,1.21,10.342,10.342,0,0,0-4.432,5.225c-1.318,4.136,1.5,8.812,3.792,12.635.528.878,1.032,1.723,1.466,2.51,4.109,7.5.06,18.759-5.943,24.645A.882.882,0,0,1,389.775,402.085Z" transform="translate(735.569 675.594) rotate(3)" fill="#fff"/>
    <path id="Trazado_63051" data-name="Trazado 63051" d="M410.143,384.774a13.108,13.108,0,0,1-8.42,2.83c-4.2-.262-8.034-3.258-11.1-8.589-.3-.519-.63-1.134-.99-1.8-2.027-3.765-5.035-9.355-8.716-9.868a4.657,4.657,0,0,0-3.6,1.182.61.61,0,0,1-.95-.13.923.923,0,0,1,.275-1.1l.009-.006a6.147,6.147,0,0,1,4.682-1.526c4.272.579,7.473,6.492,9.63,10.475.359.658.685,1.261.98,1.771,2.851,4.933,6.323,7.687,10.055,7.9,3.258.187,6.761-1.551,10.405-5.186a.824.824,0,0,1,1.195-.063.9.9,0,0,1-.094,1.228A27.191,27.191,0,0,1,410.143,384.774Z" transform="translate(709.924 695.019) rotate(3)" fill="#fff"/>
    <path id="Trazado_63038" data-name="Trazado 63038" d="M457.5,485.154c-9.892-11.162-39.114-26.343-31.436-43.751,6.531-14.807,37.868-12.982,34.1-30.835-2.229-10.559-5.125-19.573,1.693-31.58,7.425-13.078,29.623-5.958,37.316-18.1,6.61-10.435-2.154-17.039,11.5-24.005,12.122-6.188,28.926,0,31.194,12.526,3.1,16.255-12.6,14.258-14.3,25.915-1.083,7.422,5.675,10.007,9.548,15.2,3.708,4.975,7.041,12.134,7.286,18.294.739,18.52-19.558,20.919-29.179,32.691-8.912,10.906,7.521,17.935,5.059,29.792-2.658,12.8-20.877,19.785-33.7,19.594C477.692,490.762,463.633,492.071,457.5,485.154Z" transform="translate(555.188 887.22) rotate(-22)" fill="#56b2e5"/>
    <path id="Trazado_63039" data-name="Trazado 63039" d="M440.366,475.367a.917.917,0,0,1-.232-.075.668.668,0,0,1-.311-1.008c.175-.265,18.3-27.514,19.344-61.758.694-22.829,10.182-37.436,17.962-49.419,4.7-7.237,8.8-13.549,9.428-19.875a1.021,1.021,0,0,1,1.059-.9.884.884,0,0,1,.878.978c-.688,6.776-4.908,13.259-9.747,20.69-7.669,11.778-17.024,26.144-17.742,48.5-1.113,34.664-19.495,62.22-19.676,62.485A.972.972,0,0,1,440.366,475.367Z" transform="translate(589.01 890.693) rotate(-22)" fill="#fff"/>
    <path id="Trazado_63040" data-name="Trazado 63040" d="M447.127,386.044a.805.805,0,0,1-.682-.872.948.948,0,0,1,1.017-.775c7.675.459,17.929-4.027,21.027-11.509.374-.9.745-1.895,1.137-2.941,1.876-5.023,4.233-11.328,9.162-13.6a10.891,10.891,0,0,1,8.263-.057.8.8,0,0,1,.48,1.116,1.035,1.035,0,0,1-1.234.525,8.806,8.806,0,0,0-6.767-.027c-4.178,1.925-6.39,7.817-8.155,12.511-.4,1.068-.781,2.082-1.161,3-3.53,8.483-14.635,13.144-22.955,12.647A.9.9,0,0,1,447.127,386.044Z" transform="translate(611.566 910.239) rotate(-22)" fill="#fff"/>
    <path id="Trazado_63041" data-name="Trazado 63041" d="M452.565,394.695a13.582,13.582,0,0,1-8.061-4.673c-2.848-3.659-3.3-9.177-1.258-15.992.2-.676.459-1.457.742-2.314,1.6-4.869,4.043-12.306,1.638-16.433a5.869,5.869,0,0,0-3.889-2.715.881.881,0,0,1-.658-1.1,1,1,0,0,1,1.183-.643l.009,0a7.728,7.728,0,0,1,5.041,3.572c2.776,4.776.178,12.641-1.524,17.784-.275.839-.528,1.6-.727,2.269-1.895,6.3-1.551,11.325.972,14.574,2.151,2.77,5.919,4.308,11.174,4.589a.814.814,0,0,1,.827.884.948.948,0,0,1-1.008.787A27.231,27.231,0,0,1,452.565,394.695Z" transform="translate(597.908 905.496) rotate(-22)" fill="#fff"/>
    <path id="Trazado_63042" data-name="Trazado 63042" d="M445.625,395.782a8.654,8.654,0,0,1-2.95-1.077.682.682,0,0,1-.184-1.056.979.979,0,0,1,1.234-.205c4.595,2.772,13.938-.827,17.911-3.629a23.939,23.939,0,0,0,4.724-5.361c2.827-3.862,5.765-7.877,10.408-8.007a.749.749,0,0,1,.86.751.9.9,0,0,1-.911.805c-3.662.106-6.323,3.738-8.885,7.225a24.892,24.892,0,0,1-5.138,5.75C459.132,393.492,451.342,396.826,445.625,395.782Z" transform="translate(619.672 952.501) rotate(-22)" fill="#fff"/>
    <path id="Trazado_63043" data-name="Trazado 63043" d="M450.023,409.889a10.984,10.984,0,0,1-3.18-1.122c-5.786-3.077-9.216-10.957-10.112-15.546-.477-2.465.259-5.723,1.044-9.189,1.255-5.539,2.564-11.319-1.041-13.953a.765.765,0,0,1-.112-1.159,1.012,1.012,0,0,1,1.3-.124c4.435,3.249,2.942,9.8,1.635,15.516-.757,3.319-1.466,6.432-1.044,8.61.8,4.154,4.034,11.727,9.3,14.535a8.707,8.707,0,0,0,6.444.769.884.884,0,0,1,1.08.51.8.8,0,0,1-.637.953A10.9,10.9,0,0,1,450.023,409.889Z" transform="translate(602.709 942.33) rotate(-22)" fill="#fff"/>
  </g>
</svg>
